<svg width="70" height="33" viewBox="0 0 70 33" fill="none" xmlns="http://www.w3.org/2000/svg">
<g clip-path="url(#clip0_489_862)">
<path d="M69.9639 7.23923L69.2051 2.66976C68.9609 1.20252 68.3922 0.0019989 67.9394 0.0019989C67.4865 0.0019989 67.1163 1.21874 67.1163 2.70606V3.90053C67.1163 5.38813 65.9042 6.6046 64.4219 6.6046H63.2324C63.1455 6.6046 63.0601 6.60817 62.9759 6.61312V9.89847C63.0601 9.90259 63.1455 9.90589 63.2321 9.90589H67.7119C69.1939 9.90589 70.2075 8.7062 69.9639 7.23923ZM59.2238 3.37094H51.9594C51.8987 3.37094 51.8396 3.37616 51.7806 3.38029H44.3231C44.2356 3.38029 44.1503 3.38854 44.0661 3.40229V2.70606C44.0661 1.21847 43.6958 0.0019989 43.2439 0.0019989C42.791 0.0019989 42.222 1.20252 41.9784 2.66976L41.2196 7.23923C40.976 8.70537 41.9893 9.90589 43.4708 9.90589H47.9511C48.4124 9.90589 48.8482 9.83413 49.2286 9.70709C49.1577 10.0858 48.9574 10.4277 48.6625 10.6737C48.3675 10.9196 47.9963 11.0542 47.6131 11.0542H41.3301C40.3129 11.0542 39.5399 10.138 39.7069 9.13213L40.3435 5.30261C40.5103 4.29567 39.7373 3.38056 38.7212 3.38056H7.45389C7.13806 3.38041 6.82886 3.47174 6.56328 3.64363C6.29769 3.81552 6.08696 4.06069 5.95628 4.34984L0.0675266 13.3386C-0.032825 13.4907 -0.0199734 13.6906 0.0970578 13.83L1.23948 15.1837C1.38276 15.3531 1.63323 15.3784 1.80604 15.2414L5.80862 12.0718V31.3038C5.80862 32.2151 6.54444 32.9545 7.45335 32.9545H16.3299C17.2389 32.9545 17.9749 32.2148 17.9749 31.3038V24.6157C17.9749 23.7036 18.7119 22.9651 19.6199 22.9651H41.7801C42.6882 22.9651 43.4251 23.7036 43.4251 24.6157V31.3038C43.4251 32.2151 44.1612 32.9545 45.0701 32.9545H53.9467C54.8546 32.9545 55.5917 32.2148 55.5917 31.3038V24.1065H50.8769C49.3954 24.1065 48.183 22.8889 48.183 21.4024V16.7736C48.183 15.8928 48.6095 15.1094 49.2647 14.615V20.1392C49.2647 21.6268 50.4771 22.8433 51.9594 22.8433H59.2238C60.7061 22.8433 61.9185 21.6265 61.9185 20.1392V6.075C61.9185 4.58741 60.7061 3.37094 59.2238 3.37094Z" fill="white"/>
</g>
<defs>
<clipPath id="clip0_489_862">
<rect width="70" height="33" fill="white"/>
</clipPath>
</defs>
</svg>
