<svg width="50" height="50" viewBox="0 0 50 50" fill="none" xmlns="http://www.w3.org/2000/svg">
<g clip-path="url(#clip0_489_891)">
<path d="M3.08203 0.600801C3.08203 0.934579 3.9276 10.7254 4.97344 22.3632C5.99703 33.9786 6.8871 43.8362 6.90936 44.259L6.97611 45.0156L15.9881 47.5078L24.9779 50L26.7803 49.5105C27.7594 49.2434 31.787 48.1308 35.7478 47.0405C41.8893 45.3494 42.9352 44.9933 43.0242 44.615C43.1354 44.081 46.9183 1.2016 46.9183 0.489542V0H3.08203V0.600801ZM38.8408 10.0579C38.7518 10.5919 38.1733 16.9114 37.5502 24.1433C36.9049 31.3529 36.3709 37.3164 36.3264 37.3609C36.2374 37.4722 25.3117 40.4984 25.0001 40.4984C24.7776 40.4984 18.8141 38.8741 14.742 37.717L13.6072 37.3832L13.3402 34.4459C13.2066 32.8215 13.0286 30.8634 12.9396 30.0846L12.8061 28.7049H15.5876C18.7251 28.7049 18.6361 28.6604 18.6584 30.5964C18.6584 31.0859 18.7251 31.8425 18.7919 32.2875L18.9254 33.0886L21.9739 33.8896L25.0001 34.6907L28.0042 33.8896C29.6508 33.4446 31.0304 33.0663 31.0304 33.0663C31.0527 33.0441 31.1862 31.7312 31.3197 30.1513C31.4532 28.5492 31.609 26.9915 31.6757 26.6355L31.787 26.0347H12.6948L12.5836 25.5229C12.5168 25.2559 12.3833 23.9653 12.2943 22.6302L12.1386 20.2492H32.1875L32.321 18.7361C32.41 17.9128 32.5435 16.6444 32.6103 15.9324C32.6993 15.02 32.677 14.664 32.499 14.7753C32.3655 14.842 27.6259 14.842 21.9294 14.753L11.5823 14.6195L11.4487 13.0396C11.3597 12.1718 11.2485 10.9257 11.1817 10.2804L11.0482 9.12328H38.9521L38.8408 10.0579Z" fill="white"/>
</g>
<defs>
<clipPath id="clip0_489_891">
<rect width="50" height="50" fill="white"/>
</clipPath>
</defs>
</svg>
