<svg width="64" height="64" viewBox="0 0 64 64" fill="none" xmlns="http://www.w3.org/2000/svg">
<path d="M63.3695 26.4627C63.1962 26.3267 61.5762 25.12 58.1588 25.12C57.2562 25.124 56.3562 25.2 55.4668 25.348C54.8055 20.876 51.1748 18.7747 51.0068 18.6773L50.0895 18.1547L49.4855 19.0133C48.7295 20.168 48.0615 21.36 47.7375 22.6973C47.1255 25.2507 47.4975 27.648 48.8122 29.6973C47.2228 30.5707 44.5148 30.648 44.0002 30.6667H2.10951C1.00817 30.668 0.114839 31.5467 0.108172 32.632C0.0588386 36.276 0.578839 40.036 1.84951 43.4573C3.30151 47.2147 5.46284 49.9827 8.2735 51.676C11.4228 53.5787 16.5402 54.6667 22.3415 54.6667C24.9615 54.6747 27.5775 54.4413 30.1535 53.968C33.7348 53.3187 37.1815 52.084 40.3495 50.3147C42.9602 48.8227 45.3095 46.9253 47.3082 44.6947C50.6482 40.964 52.6375 36.8107 54.1175 33.1187C54.3162 33.1187 54.5148 33.1187 54.7068 33.1187C58.3642 33.1187 60.6122 31.6747 61.8522 30.4653C62.6762 29.6933 63.3202 28.7533 63.7375 27.712L64.0002 26.9547L63.3695 26.4627Z" fill="white"/>
<path d="M10.6668 29.3333H6.66683C5.93083 29.3333 5.3335 28.736 5.3335 28V24C5.3335 23.264 5.93083 22.6667 6.66683 22.6667H10.6668C11.4028 22.6667 12.0002 23.264 12.0002 24V28C12.0002 28.736 11.4028 29.3333 10.6668 29.3333Z" fill="white"/>
<path d="M18.6668 29.3333H14.6668C13.9308 29.3333 13.3335 28.736 13.3335 28V24C13.3335 23.264 13.9308 22.6667 14.6668 22.6667H18.6668C19.4028 22.6667 20.0002 23.264 20.0002 24V28C20.0002 28.736 19.4028 29.3333 18.6668 29.3333Z" fill="white"/>
<path d="M26.6668 29.3333H22.6668C21.9308 29.3333 21.3335 28.736 21.3335 28V24C21.3335 23.264 21.9308 22.6667 22.6668 22.6667H26.6668C27.4028 22.6667 28.0002 23.264 28.0002 24V28C28.0002 28.736 27.4028 29.3333 26.6668 29.3333Z" fill="white"/>
<path d="M34.6668 29.3333H30.6668C29.9308 29.3333 29.3335 28.736 29.3335 28V24C29.3335 23.264 29.9308 22.6667 30.6668 22.6667H34.6668C35.4028 22.6667 36.0002 23.264 36.0002 24V28C36.0002 28.736 35.4028 29.3333 34.6668 29.3333Z" fill="white"/>
<path d="M18.6668 21.3333H14.6668C13.9308 21.3333 13.3335 20.736 13.3335 20V16C13.3335 15.264 13.9308 14.6667 14.6668 14.6667H18.6668C19.4028 14.6667 20.0002 15.264 20.0002 16V20C20.0002 20.736 19.4028 21.3333 18.6668 21.3333Z" fill="white"/>
<path d="M26.6668 21.3333H22.6668C21.9308 21.3333 21.3335 20.736 21.3335 20V16C21.3335 15.264 21.9308 14.6667 22.6668 14.6667H26.6668C27.4028 14.6667 28.0002 15.264 28.0002 16V20C28.0002 20.736 27.4028 21.3333 26.6668 21.3333Z" fill="white"/>
<path d="M34.6668 21.3333H30.6668C29.9308 21.3333 29.3335 20.736 29.3335 20V16C29.3335 15.264 29.9308 14.6667 30.6668 14.6667H34.6668C35.4028 14.6667 36.0002 15.264 36.0002 16V20C36.0002 20.736 35.4028 21.3333 34.6668 21.3333Z" fill="white"/>
<path d="M34.6668 13.3333H30.6668C29.9308 13.3333 29.3335 12.736 29.3335 12V8.00001C29.3335 7.26401 29.9308 6.66667 30.6668 6.66667H34.6668C35.4028 6.66667 36.0002 7.26401 36.0002 8.00001V12C36.0002 12.736 35.4028 13.3333 34.6668 13.3333Z" fill="white"/>
<path d="M42.6668 29.3333H38.6668C37.9308 29.3333 37.3335 28.736 37.3335 28V24C37.3335 23.264 37.9308 22.6667 38.6668 22.6667H42.6668C43.4028 22.6667 44.0002 23.264 44.0002 24V28C44.0002 28.736 43.4028 29.3333 42.6668 29.3333Z" fill="white"/>
</svg>
