<svg width="90" height="31" viewBox="0 0 90 31" fill="none" xmlns="http://www.w3.org/2000/svg">
<path d="M30.9036 16.1985C30.9064 14.9393 30.5213 13.71 29.8011 12.6792C29.0809 11.6483 28.0608 10.8664 26.8807 10.4405C27.1226 9.17172 27.083 7.86497 26.7647 6.61331C26.4464 5.36164 25.8572 4.19585 25.039 3.19893C24.2209 2.20201 23.1939 1.39849 22.0313 0.845572C20.8686 0.292657 19.5989 0.00394924 18.3124 6.25232e-06C16.93 -0.00165298 15.5671 0.326955 14.3362 0.958691C13.1052 1.59043 12.0416 2.50717 11.2331 3.6332C10.5472 3.10116 9.72647 2.77285 8.8641 2.68551C8.00174 2.59818 7.13227 2.75531 6.35433 3.13908C5.5764 3.52285 4.92115 4.11789 4.46294 4.85669C4.00473 5.5955 3.76191 6.44847 3.76202 7.31885C3.76395 7.87354 3.86116 8.42375 4.04937 8.94526C2.8652 9.37067 1.84073 10.1529 1.11595 11.185C0.391167 12.2171 0.00143311 13.4488 3.94466e-06 14.7118C-0.00142522 15.9747 0.385521 17.2073 1.10796 18.2411C1.83041 19.2748 2.85311 20.0594 4.03631 20.4875C3.65617 22.4458 3.95442 24.4757 4.88153 26.2403C5.80863 28.0049 7.30884 29.398 9.13309 30.1883C10.9573 30.9787 12.9959 31.1188 14.9103 30.5853C16.8248 30.0518 18.5 28.8768 19.6578 27.2555C20.4638 27.8988 21.4625 28.25 22.4921 28.2523C23.7217 28.252 24.9009 27.7613 25.7704 26.8881C26.6399 26.015 27.1285 24.8309 27.1289 23.5961C27.1269 23.0414 27.0297 22.4912 26.8415 21.9696C28.0253 21.5407 29.0496 20.7573 29.776 19.7253C30.5024 18.6933 30.896 17.4623 30.9036 16.1985Z" fill="white"/>
<path d="M12.1742 13.1681L19.0001 16.2648L25.8787 10.2551C25.9803 9.75856 26.0289 9.25274 26.0236 8.74605C26.0248 7.11032 25.4998 5.51722 24.5257 4.20015C23.5515 2.88309 22.1794 1.91129 20.6104 1.42716C19.0413 0.94302 17.3578 0.971988 15.8065 1.50982C14.2551 2.04765 12.9176 3.06606 11.9897 4.41586L10.8433 10.3338L12.1742 13.1681Z" fill="#020204"/>
<path d="M5.02374 20.6475C4.92243 21.1506 4.87402 21.6629 4.87929 22.1759C4.8813 23.8111 5.40978 25.4027 6.38728 26.7173C7.36478 28.032 8.73989 29.0006 10.3111 29.4812C11.8822 29.9617 13.5668 29.929 15.1179 29.3878C16.6691 28.8466 18.0051 27.8254 18.9303 26.4738L20.0596 20.6083L18.5495 17.7344L11.721 14.6384L5.02374 20.6475Z" fill="#020204"/>
<path d="M5.10704 8.67177L9.80954 9.75921L10.8428 4.54211C10.2049 4.06478 9.42563 3.80277 8.62225 3.7955C7.81887 3.78824 7.0348 4.0361 6.38797 4.50181C5.74114 4.96752 5.26653 5.6259 5.03553 6.37791C4.80453 7.12992 4.82962 7.9349 5.10704 8.67177Z" fill="#020204"/>
<path d="M4.58545 9.75893C3.58616 10.0927 2.71306 10.7334 2.08634 11.593C1.45962 12.4526 1.11008 13.4888 1.08583 14.5589C1.06157 15.629 1.3638 16.6805 1.95091 17.5685C2.53803 18.4566 3.38116 19.1377 4.36427 19.518L10.8435 13.5593L9.65956 10.9772L4.58545 9.75893Z" fill="#020204"/>
<path d="M20.0605 26.372C20.7009 26.8457 21.4805 27.104 22.2831 27.1084C23.0858 27.1128 23.8683 26.863 24.514 26.3964C25.1597 25.9298 25.6338 25.2714 25.8657 24.5194C26.0976 23.7674 26.0748 22.9621 25.8007 22.2239L21.097 21.1446L20.0605 26.372Z" fill="#020204"/>
<path d="M21.3795 19.9397L26.3737 21.1447C27.3573 20.811 28.2166 20.1702 28.8335 19.3106C29.4503 18.451 29.7944 17.4149 29.8183 16.3447C29.8421 15.2746 29.5447 14.2232 28.9668 13.3351C28.3889 12.447 27.5591 11.766 26.5914 11.3857L20.0605 17.3047L21.3795 19.9397Z" fill="#020204"/>
<path d="M43.4782 21.725L44.0912 21.6589L44.1303 22.9294C42.7568 23.1371 41.3713 23.2521 39.9828 23.2735C38.4569 23.2735 37.3744 22.8235 36.7353 21.9236C36.0962 21.0236 35.7832 19.6207 35.7832 17.7281C35.7832 13.943 37.2657 12.0504 40.2306 12.0504C41.6653 12.0504 42.7348 12.4607 43.439 13.268C44.1433 14.0754 44.4955 15.3591 44.4955 17.0929L44.4042 18.3237H37.3874C37.3874 19.5148 37.5961 20.4016 38.0265 20.9707C38.4569 21.5398 39.1872 21.8309 40.2437 21.8309C41.3229 21.8547 42.4027 21.8194 43.4782 21.725ZM42.9043 17.0532C42.9043 15.7297 42.6956 14.79 42.2783 14.2474C41.8609 13.7048 41.1827 13.4268 40.2437 13.4268C39.3046 13.4268 38.5873 13.718 38.1178 14.2871C37.6483 14.8562 37.4005 15.7826 37.3874 17.0532H42.9043ZM46.7127 23.075V7.59032H48.3038V23.075H46.7127ZM58.3595 15.5444V20.8516C58.3595 21.3942 59.6767 21.5001 59.6767 21.5001L59.5985 22.9294C58.4768 22.9294 57.5508 23.0221 56.99 22.4794C55.7864 23.0184 54.4842 23.2935 53.1686 23.2868C52.1904 23.2868 51.447 23.0088 50.9384 22.4397C50.4297 21.8706 50.1689 21.0765 50.1689 20.0178C50.1689 18.959 50.4297 18.1914 50.9514 17.7017C51.4731 17.212 52.2948 16.8944 53.4164 16.7885L56.7552 16.4708V15.5444C56.7552 14.8165 56.5987 14.2871 56.2857 13.9695C55.9727 13.6518 55.5423 13.493 55.0076 13.493H50.821V12.0637H54.9032C56.1031 12.0637 56.977 12.3416 57.5247 12.9107C58.0725 13.4798 58.3595 14.3533 58.3595 15.5444ZM51.8122 19.9384C51.8122 21.2618 52.3469 21.9236 53.4295 21.9236C54.3977 21.9256 55.3593 21.76 56.2727 21.4339L56.7552 21.2618V17.7017L53.6121 18.0061C52.973 18.059 52.5165 18.2443 52.2296 18.5619C51.9426 18.8796 51.8122 19.3428 51.8122 19.9384ZM64.5806 13.5063C63.0416 13.5063 62.2591 14.0489 62.2591 15.1474C62.2591 15.6503 62.4417 16.0076 62.7938 16.2194C63.146 16.4311 63.9546 16.6429 65.2197 16.8679C66.4848 17.0929 67.3717 17.3973 67.8934 17.8076C68.4151 18.2178 68.6759 18.959 68.6759 20.0707C68.6759 21.1824 68.3238 21.9897 67.6195 22.5059C66.9152 23.0221 65.8979 23.2868 64.5415 23.2868C63.6677 23.2868 60.7332 22.9559 60.7332 22.9559L60.8244 21.553C62.5069 21.7118 63.7329 21.8442 64.5546 21.8442C65.3762 21.8442 66.0022 21.7118 66.4326 21.4471C66.863 21.1824 67.0848 20.7324 67.0848 20.1104C67.0848 19.4884 66.9022 19.0649 66.537 18.8399C66.1718 18.6149 65.3632 18.4031 64.1111 18.2046C62.8591 18.0061 61.9722 17.7149 61.4505 17.3179C60.9288 16.9208 60.6679 16.2062 60.6679 15.1606C60.6679 14.1151 61.0331 13.3342 61.7635 12.8313C62.4939 12.3284 63.4068 12.0769 64.4893 12.0769C65.3501 12.0769 68.3499 12.3019 68.3499 12.3019V13.718C66.7717 13.6254 65.4806 13.5063 64.5806 13.5063ZM76.3709 13.6915H72.9929V18.8531C72.9929 20.0839 73.0842 20.9045 73.2538 21.2883C73.4233 21.6721 73.8537 21.8706 74.5189 21.8706L76.41 21.7383L76.5144 23.075C75.7996 23.2094 75.0759 23.289 74.3493 23.3132C73.2407 23.3132 72.4843 23.0353 72.0539 22.4927C71.6235 21.95 71.4148 20.9045 71.4148 19.3693V13.6915H69.9019V12.2887H71.4148V8.97997H72.9929V12.2754H76.3709V13.6915ZM78.5881 9.84023V7.97412H80.1792V9.85346L78.5881 9.84023ZM78.5881 23.075V12.2887H80.1792V23.075H78.5881ZM87.0917 12.0637C87.5612 12.0637 88.3568 12.1563 89.4784 12.3284L89.9871 12.3945L89.9219 13.7048C89.0911 13.5951 88.2552 13.5288 87.4177 13.5063C86.2178 13.5063 85.3962 13.7974 84.9658 14.3798C84.5354 14.9621 84.3137 16.0473 84.3137 17.6223C84.3137 19.1972 84.5093 20.2957 84.9136 20.9177C85.3179 21.5398 86.1526 21.8442 87.4308 21.8442L89.9349 21.6456L90.0001 22.9824C88.6828 23.1809 87.6916 23.2868 87.0395 23.2868C85.3831 23.2868 84.2354 22.85 83.6094 21.9897C82.9833 21.1295 82.6573 19.6737 82.6573 17.6223C82.6573 15.5709 82.9964 14.1283 83.6746 13.3077C84.3528 12.4872 85.5005 12.0637 87.0917 12.0637Z" fill="white"/>
</svg>
