<svg width="105" height="39" viewBox="0 0 105 39" fill="none" xmlns="http://www.w3.org/2000/svg">
<path d="M7.84948 11.7155C7.64691 11.7155 7.59627 11.6147 7.69756 11.4634L8.76103 10.102C8.86232 9.95069 9.11553 9.84984 9.31809 9.84984H27.3972C27.5998 9.84984 27.6504 10.0011 27.5491 10.1524L26.6882 11.4634C26.587 11.6147 26.3337 11.7659 26.1818 11.7659L7.84948 11.7155ZM0.202567 16.3544C0 16.3544 -0.0506418 16.2536 0.0506418 16.1023L1.11412 14.7409C1.2154 14.5896 1.46861 14.4888 1.67118 14.4888H24.7638C24.9664 14.4888 25.0677 14.64 25.0171 14.7913L24.6119 16.0015C24.5613 16.2032 24.3587 16.304 24.1561 16.304L0.202567 16.3544ZM12.4579 20.9934C12.2553 20.9934 12.2047 20.8421 12.306 20.6908L13.0149 19.4303C13.1162 19.279 13.3188 19.1277 13.5214 19.1277H23.6497C23.8523 19.1277 23.9536 19.279 23.9536 19.4807L23.8523 20.6908C23.8523 20.8925 23.6497 21.0438 23.4978 21.0438L12.4579 20.9934ZM65.0241 10.8079C61.8337 11.6147 59.6561 12.2197 56.5163 13.0265C55.7566 13.2282 55.706 13.2786 55.0477 12.5223C54.288 11.6651 53.731 11.1104 52.6675 10.6062C49.4771 9.04307 46.3879 9.49688 43.5013 11.3625C40.0577 13.5812 38.2852 16.8587 38.3359 20.943C38.3865 24.9768 41.1718 28.3048 45.1725 28.8594C48.6161 29.3132 51.5027 28.1031 53.7816 25.5315C54.2374 24.9768 54.6425 24.3717 55.1489 23.6658H45.3751C44.3116 23.6658 44.0584 23.0103 44.4129 22.1531C45.0712 20.59 46.2866 17.968 46.9956 16.657C47.1475 16.3544 47.502 15.8502 48.2617 15.8502H66.6953C66.594 17.2116 66.594 18.5731 66.3914 19.9345C65.8344 23.565 64.467 26.8929 62.2388 29.8174C58.5926 34.6077 53.8323 37.5826 47.8059 38.3894C42.843 39.0449 38.2346 38.0869 34.1832 35.0615C30.4357 32.2378 28.3088 28.5064 27.7517 23.8675C27.0934 18.3714 28.7139 13.4299 32.0563 9.09349C35.6518 4.40413 40.4122 1.42916 46.236 0.370271C50.9963 -0.486924 55.5541 0.0677318 59.6561 2.84101C62.3401 4.60582 64.2645 7.02614 65.5305 9.95069C65.8344 10.4045 65.6318 10.6566 65.0241 10.8079Z" fill="white"/>
<path d="M81.786 38.6918C77.1776 38.591 72.9744 37.28 69.4294 34.2546C66.4416 31.683 64.5678 28.4055 63.9601 24.5229C63.0486 18.8251 64.6185 13.7827 68.0621 9.29507C71.759 4.45444 76.2154 1.93328 82.2418 0.87439C87.4073 -0.0332287 92.2689 0.471004 96.6747 3.44598C100.675 6.16883 103.157 9.84973 103.815 14.6904C104.676 21.4975 102.701 27.0441 97.9914 31.7838C94.6491 35.1622 90.5471 37.28 85.8374 38.238C84.4701 38.4901 83.1027 38.5406 81.786 38.6918ZM93.8388 18.3208C93.7882 17.6653 93.7882 17.1611 93.6869 16.6569C92.7753 11.665 88.1669 8.84126 83.3559 9.95057C78.6462 11.0095 75.6077 13.9844 74.4936 18.7242C73.5821 22.6572 75.5065 26.6407 79.1527 28.2542C81.938 29.4644 84.7233 29.3131 87.4073 27.9517C91.408 25.8843 93.5856 22.6572 93.8388 18.3208Z" fill="white"/>
</svg>
