<svg width="52" height="50" viewBox="0 0 52 50" fill="none" xmlns="http://www.w3.org/2000/svg">
<g clip-path="url(#clip0_489_807)">
<path d="M29.4276 14.6634C29.2566 14.6709 29.0934 14.7369 28.9649 14.8503C28.8365 14.9637 28.7506 15.1177 28.7216 15.2868C28.7216 15.2868 26.3015 30.9511 26.0515 30.9511C25.8016 30.9511 23.3014 19.1809 23.3014 19.1809C23.2656 19.0273 23.1824 18.889 23.0636 18.7855C22.9448 18.682 22.7965 18.6188 22.6398 18.6046C22.483 18.5905 22.3258 18.6263 22.1905 18.7069C22.0552 18.7875 21.9487 18.9088 21.8862 19.0535L19.3868 24.8292H17.9609C17.666 24.2119 17.0423 23.7825 16.3137 23.7825C15.8327 23.7897 15.3738 23.9862 15.0362 24.3297C14.6985 24.6731 14.5093 25.1359 14.5093 25.6181C14.5093 26.1003 14.6985 26.5631 15.0362 26.9066C15.3738 27.25 15.8327 27.4466 16.3137 27.4537C17.0735 27.4537 17.7248 26.99 18.0021 26.3298H19.878C20.0239 26.3298 20.1666 26.287 20.2886 26.2067C20.4106 26.1264 20.5065 26.0122 20.5645 25.878C20.5645 25.878 22.1825 21.7306 22.3593 21.7306C22.5361 21.7306 25.4374 34.9041 25.4374 34.9041C25.4758 35.0689 25.5687 35.2158 25.701 35.3209C25.8332 35.4261 25.9971 35.4833 26.1659 35.4833C26.5449 35.4722 26.8438 35.2114 26.9041 34.8596C26.9041 34.8596 29.3971 18.9721 29.6123 18.9721C29.8275 18.9721 32.3283 29.4078 32.3283 29.4078C32.3685 29.5621 32.4566 29.6995 32.5799 29.8001C32.7033 29.9007 32.8554 29.9594 33.0142 29.9675C33.173 29.9754 33.3301 29.9326 33.463 29.8453C33.596 29.758 33.6979 29.6306 33.754 29.4816L35.7325 24.1831L37.0518 26.213C37.1646 25.2673 37.1397 24.3105 36.9848 23.3436L36.1939 22.103C36.1196 21.9846 36.0137 21.8895 35.8883 21.8283C35.7628 21.7672 35.6228 21.7424 35.4841 21.7568C35.3454 21.7713 35.2135 21.8243 35.1031 21.9097C34.9928 21.9951 34.9083 22.1097 34.8593 22.2405L33.1804 26.7366L30.1843 15.2239C30.142 15.0633 30.0479 14.9211 29.9167 14.8197C29.7854 14.7182 29.6244 14.6631 29.4586 14.6628C29.4484 14.6628 29.4379 14.663 29.4276 14.6634Z" fill="white"/>
<path d="M25.7463 41.9971C16.4474 41.9971 8.90921 34.3985 8.90921 25.0254C8.90921 15.6521 16.4474 8.05329 25.7463 8.05329C35.0451 8.05329 42.5833 15.6517 42.5833 25.0252C42.5833 34.3983 35.0451 41.9971 25.7463 41.9971ZM25.7463 0.109146C11.5269 0.109146 0 11.2773 0 25.054C0 38.8305 11.5269 49.9987 25.7463 49.9987C39.9657 49.9987 51.4925 38.8305 51.4925 25.054C51.4925 11.2773 39.9657 0.109146 25.7463 0.109146Z" fill="white"/>
</g>
<defs>
<clipPath id="clip0_489_807">
<rect width="51.4925" height="50" fill="white"/>
</clipPath>
</defs>
</svg>
