<svg width="39" height="52" viewBox="0 0 39 52" fill="none" xmlns="http://www.w3.org/2000/svg">
<path fill-rule="evenodd" clip-rule="evenodd" d="M12.4431 40.3721C12.4431 40.3721 10.4246 41.5526 13.8811 41.9514C18.0697 42.4322 20.2092 42.363 24.8235 41.4857C24.8235 41.4857 26.0384 42.2502 27.7342 42.9116C17.3871 47.3679 4.31701 42.6538 12.4431 40.3721ZM11.1782 34.5569C11.1782 34.5569 8.91382 36.2415 12.3734 36.6011C16.8479 37.0655 20.3797 37.1034 26.4952 35.9207C26.4952 35.9207 27.3396 36.7822 28.6685 37.2528C16.16 40.93 2.22883 37.5423 11.1782 34.5569Z" fill="white"/>
<path fill-rule="evenodd" clip-rule="evenodd" d="M21.9803 25.0234C24.5042 27.9632 21.3187 30.6072 21.3187 30.6072C21.3187 30.6072 27.7244 27.2617 24.7823 23.0708C22.0354 19.1644 19.9284 17.2237 31.3338 10.5311C31.3338 10.5311 13.4302 15.0538 21.9803 25.0234Z" fill="white"/>
<path fill-rule="evenodd" clip-rule="evenodd" d="M35.6713 44.6073C35.6713 44.6073 37.1672 45.8193 34.0236 46.7566C28.0458 48.5359 9.13902 49.0725 3.88725 46.8274C2.00074 46.0199 5.54026 44.9006 6.65381 44.6642C7.81522 44.4175 8.478 44.4624 8.478 44.4624C6.37861 43.0096 -5.09189 47.3157 2.65255 48.551C23.7702 51.9158 41.1483 47.0361 35.6713 44.6073ZM13.5393 28.8058C13.5393 28.8058 3.92324 31.0509 10.1345 31.8669C12.758 32.2116 17.9839 32.1322 22.8555 31.7306C26.8357 31.4024 30.8308 30.7002 30.8308 30.7002C30.8308 30.7002 29.4285 31.2915 28.4123 31.9722C18.6458 34.4968 -0.218478 33.321 5.21281 30.7403C9.80488 28.5573 13.5393 28.8058 13.5393 28.8058ZM30.7909 38.2809C40.7181 33.2127 36.1283 28.3412 32.9236 28.9977C32.1402 29.1586 31.7886 29.2975 31.7886 29.2975C31.7886 29.2975 32.0809 28.848 32.6366 28.6548C38.9751 26.4658 43.849 35.1127 30.5929 38.5371C30.5925 38.5371 30.7452 38.4017 30.7909 38.2809Z" fill="white"/>
<path fill-rule="evenodd" clip-rule="evenodd" d="M24.9249 0C24.9249 0 30.4319 5.42538 19.7003 13.7654C11.0939 20.4581 17.7381 24.2728 19.6976 28.6331C14.6731 24.1707 10.9875 20.2416 13.4598 16.5857C17.0895 11.2192 27.147 8.6167 24.9249 0Z" fill="white"/>
<path fill-rule="evenodd" clip-rule="evenodd" d="M14.4834 51.8367C24.0142 52.4366 38.6529 51.5035 39.0003 47.0635C39.0003 47.0635 38.3337 48.7465 31.1226 50.0815C22.9867 51.5891 12.9505 51.4136 7 50.4467C7 50.4467 8.21935 51.4399 14.4834 51.8367Z" fill="white"/>
</svg>
