<svg width="63" height="19" viewBox="0 0 63 19" fill="none" xmlns="http://www.w3.org/2000/svg">
<path d="M0.259344 18V1.056H2.63534V8.184H5.15534L9.45134 1.056H12.0673L7.12334 9.096V9.144L12.3793 18H9.66734L5.15534 10.248H2.63534V18H0.259344ZM15.0015 18V1.056H17.3775V12.048L17.2335 14.52H17.2815C17.8415 13.464 18.3215 12.632 18.7215 12.024L26.2335 1.056H28.5615V18H26.2095V7.008L26.3535 4.536H26.3055C25.7615 5.56 25.2895 6.384 24.8895 7.008L17.3295 18H15.0015ZM31.1764 18L37.2484 1.056H39.7684L45.8404 18H43.3924L41.6884 13.128H35.3044L33.6004 18H31.1764ZM35.9284 11.16H41.0644L39.1924 5.808L38.5204 3.384H38.4724C38.2324 4.408 38.0164 5.216 37.8244 5.808L35.9284 11.16ZM46.9695 9.432C46.9695 6.952 47.7775 4.888 49.3935 3.24C51.0255 1.592 53.0895 0.767999 55.5855 0.767999C58.1615 0.767999 60.2255 1.512 61.7775 3L60.5775 4.776C59.9535 4.216 59.1935 3.768 58.2975 3.432C57.4175 3.096 56.5455 2.928 55.6815 2.928C53.7615 2.928 52.2335 3.544 51.0975 4.776C49.9775 6.008 49.4175 7.552 49.4175 9.408C49.4175 11.28 49.9935 12.864 51.1455 14.16C52.2975 15.456 53.8255 16.104 55.7295 16.104C56.6735 16.104 57.6015 15.912 58.5135 15.528C59.4415 15.128 60.2495 14.584 60.9375 13.896L62.2095 15.6C60.4175 17.392 58.2335 18.288 55.6575 18.288C53.0815 18.288 50.9855 17.448 49.3695 15.768C47.7695 14.072 46.9695 11.96 46.9695 9.432Z" fill="white"/>
</svg>
