<svg width="48" height="50" viewBox="0 0 48 50" fill="none" xmlns="http://www.w3.org/2000/svg">
<path d="M47.6789 11.3113C47.6966 11.378 47.7056 11.4467 47.7058 11.5157V22.2481C47.7058 22.3859 47.6701 22.5212 47.6023 22.6404C47.5345 22.7596 47.4369 22.8584 47.3196 22.927L38.4719 28.1132V38.3926C38.4719 38.6724 38.3259 38.9306 38.0876 39.0715L19.6188 49.8958C19.5765 49.9202 19.5304 49.9359 19.4843 49.9525C19.467 49.9584 19.4507 49.9691 19.4324 49.974C19.3033 50.0087 19.1676 50.0087 19.0385 49.974C19.0174 49.9682 18.9982 49.9564 18.978 49.9486C18.9357 49.933 18.8915 49.9193 18.8512 49.8958L0.386227 39.0715C0.268925 39.0029 0.171459 38.904 0.103652 38.7848C0.0358446 38.6656 9.29438e-05 38.5304 0 38.3926L0 6.19554C0 6.12511 0.00960765 6.05664 0.0269014 5.99012C0.032666 5.96762 0.0461167 5.94708 0.0538028 5.92459C0.0682143 5.8835 0.081665 5.84144 0.102802 5.80329C0.117213 5.77786 0.13835 5.75732 0.155644 5.73384C0.177741 5.70254 0.197917 5.67026 0.223858 5.64288C0.245956 5.62038 0.274779 5.60375 0.299759 5.58419C0.327621 5.56071 0.352601 5.53528 0.384306 5.51669L9.61821 0.104537C9.73512 0.0360469 9.86764 0 10.0025 0C10.1374 0 10.2699 0.0360469 10.3868 0.104537L19.6198 5.51669H19.6217C19.6524 5.53626 19.6784 5.56071 19.7062 5.58321C19.7312 5.60277 19.7591 5.62038 19.7812 5.6419C19.8081 5.67026 19.8273 5.70254 19.8504 5.73384C19.8667 5.75732 19.8888 5.77786 19.9022 5.80329C19.9243 5.84242 19.9368 5.8835 19.9522 5.92459C19.9599 5.94708 19.9733 5.96762 19.9791 5.9911C19.9968 6.05776 20.0058 6.12649 20.006 6.19554V26.3055L27.6998 21.7952V11.5148C27.6998 11.4463 27.7094 11.3768 27.7267 11.3113C27.7334 11.2878 27.7459 11.2673 27.7536 11.2448C27.769 11.2037 27.7824 11.1617 27.8036 11.1235C27.818 11.0981 27.8391 11.0775 27.8554 11.0541C27.8785 11.0228 27.8977 10.9905 27.9246 10.9631C27.9467 10.9406 27.9746 10.924 27.9996 10.9044C28.0284 10.8809 28.0534 10.8555 28.0841 10.8369L37.319 5.42475C37.4358 5.35616 37.5684 5.32006 37.7033 5.32006C37.8382 5.32006 37.9707 5.35616 38.0876 5.42475L47.3205 10.8369C47.3532 10.8565 47.3782 10.8809 47.407 10.9034C47.431 10.923 47.4589 10.9406 47.481 10.9621C47.5079 10.9905 47.5271 11.0228 47.5502 11.0541C47.5674 11.0775 47.5886 11.0981 47.602 11.1235C47.6241 11.1617 47.6366 11.2037 47.652 11.2448C47.6606 11.2673 47.6731 11.2878 47.6789 11.3113ZM46.1667 21.7952V12.8705L42.9356 14.7642L38.4719 17.3808V26.3055L46.1676 21.7952H46.1667ZM36.9337 37.9397V29.0091L32.543 31.5621L20.005 38.8475V47.8622L36.9337 37.9397ZM1.53914 7.55029V37.9397L18.4659 47.8612V38.8485L9.62302 33.7532L9.62013 33.7513L9.61629 33.7493C9.58651 33.7317 9.56153 33.7063 9.53367 33.6847C9.50965 33.6652 9.48178 33.6495 9.46065 33.628L9.45873 33.6251C9.43375 33.6006 9.41645 33.5703 9.39532 33.5429C9.3761 33.5165 9.35304 33.494 9.33767 33.4666L9.33671 33.4637C9.31942 33.4343 9.30885 33.3991 9.29636 33.3659C9.28387 33.3365 9.26753 33.3091 9.25985 33.2778C9.25024 33.2407 9.24832 33.2006 9.24448 33.1624C9.24063 33.1331 9.23295 33.1037 9.23295 33.0744V12.0606L4.7702 9.44303L1.53914 7.55029ZM10.0035 1.6872L2.31064 6.19554L10.0016 10.7039L17.6934 6.19456L10.0016 1.6872H10.0035ZM14.0041 29.823L18.4669 27.2074V7.55029L15.2358 9.444L10.7721 12.0606V31.7177L14.0041 29.823ZM37.7033 7.00741L30.0114 11.5157L37.7033 16.0241L45.3942 11.5148L37.7033 7.00741ZM36.9337 17.3808L32.47 14.7642L29.2389 12.8705V21.7952L33.7017 24.4108L36.9337 26.3055V17.3808ZM19.2345 37.4927L30.5168 30.9351L36.1564 27.6583L28.4703 23.1529L19.6207 28.3401L11.5551 33.0675L19.2345 37.4927Z" fill="white"/>
</svg>
