<svg width="18" height="19" viewBox="0 0 18 19" fill="none" xmlns="http://www.w3.org/2000/svg">
<path fill-rule="evenodd" clip-rule="evenodd" d="M4.09088 9.29149V3.77634L2.94543 2.88543C1.73249 1.94149 1.90735e-06 2.83876 1.90735e-06 4.4127V6.10967V15.2309C1.90735e-06 15.933 0.548178 16.5036 1.22726 16.5036H4.09088V9.29149ZM16.7727 16.5036H13.9091V9.2915V9.29149V3.77634L15.0546 2.88543C16.2696 1.94149 18 2.83876 18 4.4127V6.10967V6.10968V15.2309C18 15.9351 17.4498 16.5036 16.7727 16.5036ZM13.909 9.29146V3.77631L8.99998 7.59449L4.09093 3.77631V9.29146L8.99998 13.1096L13.909 9.29146Z" fill="white"/>
</svg>
