<svg width="29" height="64" viewBox="0 0 29 64" fill="none" xmlns="http://www.w3.org/2000/svg">
<path d="M14.6717 1.92361L15.487 3.45992L15.4971 3.47894L15.5088 3.49701C15.9107 4.11864 16.3495 4.67373 16.8682 5.192L16.8697 5.1935C18.2932 6.60371 19.62 8.10881 20.8413 9.69852C23.6975 13.4613 25.63 17.6469 27.014 22.1921C27.839 24.9524 28.2862 27.7815 28.3197 30.6403L28.3198 30.6425C28.4579 39.2019 25.5388 46.538 19.6424 52.6463C18.7329 53.5645 17.7539 54.4104 16.7142 55.1766C16.5232 55.1222 16.3839 54.94 16.1674 54.5681C15.7534 53.8432 15.4778 53.047 15.3548 52.2206L15.353 52.2083L15.3506 52.1961C15.144 51.164 15.0144 50.1604 15.0787 49.1362L15.0796 49.1205V49.1048V48.6142V48.5047L15.0747 48.4939C15.0743 48.4818 15.074 48.4683 15.0736 48.4535C15.0713 48.3611 15.0685 48.2241 15.0653 48.0448C15.0589 47.6865 15.0509 47.1634 15.0416 46.4985C15.0231 45.1689 14.9996 43.2745 14.9733 41.0031C14.9208 36.4604 14.8574 30.4104 14.802 24.3561C14.7466 18.3015 14.6993 12.2432 14.6788 7.68336C14.6686 5.40321 14.665 3.49901 14.6706 2.15768C14.6709 2.07761 14.6713 1.99957 14.6717 1.92361Z" fill="#C9C9C9" stroke="white"/>
<path d="M12.4294 3.77442C12.8897 3.37776 13.3848 2.95118 13.7847 2.42414L14.1562 49.0728L13.4571 54.2625C13.3908 54.6862 13.2942 55.1047 13.1683 55.5149C12.2166 54.7684 11.3007 53.9958 10.4406 53.1726C6.48861 49.3132 3.4526 44.8823 1.76324 39.6061C1.4643 38.645 1.10919 36.433 0.850168 34.1759C0.59063 31.9144 0.439981 29.715 0.522379 28.7802L0.522465 28.7802L0.523109 28.7709C0.90133 23.3238 2.23373 18.1624 4.81244 13.3513C6.75521 9.76812 9.1748 6.5759 12.241 3.93721L12.2429 3.93558C12.3042 3.8823 12.3664 3.82864 12.4294 3.77442Z" fill="white" stroke="white"/>
<path d="M15.2561 57.7999C15.1967 58.2429 15.1274 58.76 15.1547 59.2758V62.5154V62.5364L15.1564 62.5573L15.2182 63.2923C15.1725 63.2773 15.1279 63.2634 15.0884 63.2512C15.0758 63.2472 15.0637 63.2435 15.0523 63.2399C14.988 63.2198 14.9372 63.2031 14.8916 63.1852C14.7789 63.1365 14.6603 63.0908 14.5841 63.0614C14.5823 63.0607 14.5806 63.06 14.5788 63.0594C14.5773 62.9997 14.5774 62.9234 14.5776 62.8175C14.5777 62.7802 14.5777 62.7391 14.5777 62.6939V61.984V61.9712L14.5771 61.9583C14.4771 60.0133 14.3137 58.0562 13.7054 56.1228C14.0203 55.556 14.1104 54.9444 14.1865 54.428C14.1952 54.3694 14.2036 54.3119 14.2122 54.2559C14.3155 53.71 14.407 53.1618 14.4864 52.6116C14.5532 52.9108 14.6309 53.2088 14.7225 53.5041L14.7225 53.5041L14.7232 53.5065C14.8602 53.9407 15.0365 54.36 15.2497 54.7583L15.2544 54.7671L15.2595 54.7757C15.4298 55.0655 15.6502 55.3677 15.9408 55.6067C15.6383 56.1593 15.3661 56.7755 15.2956 57.4963L15.2905 57.5374C15.2801 57.6214 15.2683 57.709 15.2561 57.7999Z" fill="white" stroke="white"/>
</svg>
