<svg width="113" height="23" viewBox="0 0 113 23" fill="none" xmlns="http://www.w3.org/2000/svg">
<path d="M0.882031 17V4.856H3.13803V6.512L3.06603 7.424H3.11403C3.41803 6.672 3.97003 6.008 4.77003 5.432C5.57003 4.856 6.42603 4.568 7.33803 4.568C9.33803 4.568 10.546 5.488 10.962 7.328H11.01C11.362 6.576 11.93 5.928 12.714 5.384C13.514 4.84 14.386 4.568 15.33 4.568C16.706 4.568 17.714 4.952 18.354 5.72C19.01 6.488 19.338 7.656 19.338 9.224V17H17.01V9.728C17.01 8.752 16.858 8 16.554 7.472C16.266 6.944 15.706 6.68 14.874 6.68C13.802 6.68 12.93 7.152 12.258 8.096C11.602 9.024 11.274 10.104 11.274 11.336V17H8.94603V9.728C8.94603 8.768 8.80203 8.024 8.51403 7.496C8.24203 6.952 7.69003 6.68 6.85803 6.68C5.77003 6.68 4.89003 7.152 4.21803 8.096C3.54603 9.04 3.21003 10.12 3.21003 11.336V17H0.882031ZM22.032 19.52C22.48 19.872 22.944 20.048 23.424 20.048C24.4 20.048 25.136 19.448 25.632 18.248L26.232 16.856L21.144 4.856H23.76L26.808 12.8L27.264 14.264H27.312C27.44 13.72 27.576 13.24 27.72 12.824L30.672 4.856H33.192L27.48 19.184C27.128 20.112 26.6 20.816 25.896 21.296C25.208 21.792 24.424 22.04 23.544 22.04C23.144 22.04 22.752 21.976 22.368 21.848C21.984 21.72 21.696 21.592 21.504 21.464L21.216 21.296L22.032 19.52ZM34.2619 10.928C34.2619 9.12 34.8699 7.608 36.0859 6.392C37.3179 5.176 38.8779 4.568 40.7659 4.568C42.6859 4.568 44.2059 5.16 45.3259 6.344L44.2219 7.976C43.2939 7.048 42.1739 6.584 40.8619 6.584C39.6459 6.584 38.6379 7 37.8379 7.832C37.0379 8.648 36.6379 9.672 36.6379 10.904C36.6379 12.152 37.0379 13.192 37.8379 14.024C38.6539 14.856 39.6859 15.272 40.9339 15.272C41.6059 15.272 42.2779 15.128 42.9499 14.84C43.6379 14.536 44.2139 14.136 44.6779 13.64L45.6139 15.344C45.0539 15.936 44.3419 16.408 43.4779 16.76C42.6139 17.112 41.7099 17.288 40.7659 17.288C38.8619 17.288 37.3019 16.688 36.0859 15.488C34.8699 14.288 34.2619 12.768 34.2619 10.928ZM47.0822 10.928C47.0822 9.024 47.6582 7.488 48.8102 6.32C49.9622 5.152 51.4182 4.568 53.1782 4.568C54.8262 4.568 56.1142 5.112 57.0422 6.2C57.9702 7.272 58.4342 8.624 58.4342 10.256C58.4342 10.464 58.4022 10.792 58.3382 11.24H49.5062C49.5702 12.504 49.9942 13.496 50.7782 14.216C51.5782 14.92 52.5462 15.272 53.6822 15.272C55.0102 15.272 56.2022 14.8 57.2582 13.856L58.2422 15.56C57.6662 16.088 56.9462 16.512 56.0822 16.832C55.2342 17.136 54.3862 17.288 53.5382 17.288C51.6502 17.288 50.0982 16.688 48.8822 15.488C47.6822 14.272 47.0822 12.752 47.0822 10.928ZM49.5782 9.56H56.0822C56.0502 8.552 55.7542 7.768 55.1942 7.208C54.6502 6.648 53.9622 6.368 53.1302 6.368C52.2182 6.368 51.4342 6.656 50.7782 7.232C50.1382 7.792 49.7382 8.568 49.5782 9.56ZM61.2336 17V4.856H63.4896V6.512L63.4176 7.424H63.4656C63.7696 6.736 64.3136 6.088 65.0976 5.48C65.8976 4.872 66.8896 4.568 68.0736 4.568C70.8416 4.568 72.2256 6.12 72.2256 9.224V17H69.8976V9.752C69.8976 8.776 69.7376 8.024 69.4176 7.496C69.1136 6.968 68.5136 6.704 67.6176 6.704C66.4496 6.704 65.4816 7.136 64.7136 8C63.9456 8.848 63.5616 9.904 63.5616 11.168V17H61.2336ZM76.1985 12.56V6.872H74.6145V4.976H76.2465V1.52H78.5265V4.976H81.4545V6.872H78.5265V12.296C78.5265 12.76 78.5905 13.168 78.7185 13.52C78.8465 13.856 78.9985 14.12 79.1745 14.312C79.3665 14.504 79.5825 14.656 79.8225 14.768C80.0785 14.88 80.3025 14.952 80.4945 14.984C80.7025 15.016 80.9105 15.032 81.1185 15.032C81.3265 15.032 81.5105 15.016 81.6705 14.984V17.048C81.2865 17.096 81.0145 17.12 80.8545 17.12C80.4865 17.12 80.1185 17.088 79.7505 17.024C79.3985 16.976 78.9985 16.864 78.5505 16.688C78.1025 16.496 77.7105 16.248 77.3745 15.944C77.0545 15.624 76.7745 15.176 76.5345 14.6C76.3105 14.008 76.1985 13.328 76.1985 12.56ZM83.9417 17V14.48H86.4377V17H83.9417ZM89.9211 17V0.0559993H92.2491V9.32H93.9771L97.2651 4.856H99.9051L95.8731 10.208V10.256L100.361 17H97.6491L94.0251 11.312H92.2491V17H89.9211ZM101.524 17V15.656L107.668 7.976L108.652 6.848V6.8C108.396 6.832 108.004 6.848 107.476 6.848H101.788V4.856H111.796V6.2L105.676 13.88C105.532 14.072 105.372 14.264 105.196 14.456C105.02 14.632 104.884 14.768 104.788 14.864L104.644 15.008V15.056C104.916 15.008 105.316 14.984 105.844 14.984H112.012V17H101.524Z" fill="white"/>
</svg>
