<svg width="101" height="52" viewBox="0 0 101 52" fill="none" xmlns="http://www.w3.org/2000/svg">
<path fill-rule="evenodd" clip-rule="evenodd" d="M0 47.3752H3.35904V34.2591L8.53869 45.6975C9.15361 47.0693 9.97483 47.5524 11.6156 47.5524C13.2569 47.5524 14.0775 47.0693 14.6924 45.6975L19.8721 34.2591V47.3752H23.2053V34.2842C23.2053 33.0138 22.6921 32.4025 21.641 32.0721C19.1026 31.2842 17.3843 31.9707 16.6153 33.674L11.5386 44.9346L6.61579 33.674C5.87215 31.9707 4.12855 31.2842 1.59016 32.0721C0.513195 32.4025 0.000574919 33.0132 0.000574919 34.2842V47.3752H0ZM26 36.6986H29.3331V43.9177C29.3079 44.3239 29.4613 45.2394 31.3078 45.2651C32.2307 45.2896 38.5126 45.2651 38.5638 45.2651V36.6729H41.9228C41.9481 36.6729 41.9228 48.3904 41.9228 48.4417C41.9481 51.3391 38.3075 51.9487 36.6409 52H26.077V49.7634C26.077 49.7634 36.6156 49.789 36.6409 49.7634C38.7948 49.56 38.5385 48.493 38.5385 48.1369V47.2721H31.4359C28.128 47.222 26.0252 45.7977 26 44.1456C26 43.9935 26.077 36.7755 26 36.6986ZM98.0254 28.3867C95.9749 28.336 94.4101 28.5137 93.0509 29.0983C92.667 29.2509 92.0768 29.2509 92.0004 29.734C92.2056 29.9363 92.2561 30.2673 92.4102 30.5476C92.7435 31.0563 93.2825 31.7416 93.7693 32.0977C94.2825 32.505 94.821 32.9112 95.3847 33.2673C96.4106 33.8769 97.5387 34.2073 98.4869 34.8186C99.0771 35.1735 99.6409 35.6321 100.205 36.0383C100.461 36.2417 100.667 36.547 101 36.6735V36.6234C100.821 36.3943 100.769 36.0639 100.615 35.8087L99.846 35.0464C99.103 34.0808 98.1536 33.216 97.153 32.505C96.3583 31.9456 94.5635 31.1577 94.2302 30.2428C94.2043 30.2171 94.1785 30.2171 94.1785 30.1915C94.7428 30.1146 95.41 29.9124 95.9226 29.7842C96.795 29.5563 97.5892 29.6064 98.4863 29.378C98.8972 29.2504 99.307 29.149 99.7179 29.0219V28.7929C99.2564 28.3354 98.9489 27.7002 98.4363 27.2935C97.1289 26.1752 95.6922 25.0819 94.2308 24.167C93.4101 23.6332 92.4102 23.3027 91.5389 22.8709C91.2562 22.7439 90.743 22.6675 90.539 22.4135C90.0764 21.854 89.8465 21.1168 89.4873 20.456C88.7351 19.0062 88.0339 17.5309 87.3851 16.0329C86.9495 15.0416 86.6409 14.0503 86.1035 13.1348C83.4364 8.81369 80.59 6.19595 76.1546 3.62833C75.2063 3.09453 74.0782 2.86608 72.8725 2.58636C72.2318 2.53509 71.591 2.51002 70.9496 2.45875C70.5646 2.30607 70.1549 1.82354 69.7698 1.59452C68.3084 0.679589 64.539 -1.32859 63.4615 1.3148C62.769 2.96691 64.4873 4.59396 65.1022 5.43312C65.539 6.01763 66.0763 6.67905 66.3849 7.33932C66.5889 7.77115 66.6148 8.20355 66.7947 8.66102C67.2303 9.80496 67.5895 11.0503 68.1279 12.0923C68.4095 12.6261 68.717 13.1855 69.0762 13.6686C69.2813 13.9484 69.6664 14.0754 69.7169 14.5329C69.3578 15.041 69.3331 15.8039 69.1279 16.4391C68.2302 19.3115 68.5635 22.8447 69.8968 24.9794C70.3077 25.6146 71.256 27.0126 72.5898 26.4794C73.7438 25.9963 73.4869 24.5726 73.8202 23.2765C73.8978 22.9968 73.8461 22.7934 73.9995 22.5901V22.6408C74.3328 23.3523 74.692 24.0388 75.0512 24.7247C75.8201 25.9706 77.2051 27.2923 78.3849 28.156C78.974 28.6134 79.4613 29.4019 80.2561 29.6554V29.6041H80.1797C80.0257 29.3763 79.7946 29.2743 79.6153 29.096C79.1539 28.6385 78.6412 28.0791 78.2562 27.5709C77.2057 26.1472 76.2569 24.5715 75.3851 22.9444C74.9742 22.1565 74.615 21.2923 74.2828 20.5044C74.1535 20.1996 74.1535 19.7422 73.8719 19.5638C73.4869 20.1483 72.9496 20.6314 72.6404 21.3179C72.1789 22.4112 72.1025 23.7579 71.949 25.1309C71.8456 25.1816 71.8714 25.156 71.8197 25.2072C71.0002 25.0039 70.7175 24.1647 70.41 23.4531C69.6669 21.6484 69.5124 18.7509 70.179 16.6664C70.3583 16.1326 71.1542 14.4548 70.8209 13.9466C70.6657 13.4635 70.179 13.1588 69.8974 12.7776C69.5382 12.3202 69.2049 11.71 68.9492 11.1762C68.3342 9.75255 68.0515 8.17678 67.3843 6.75368C67.051 6.06719 66.5389 5.38071 66.1027 4.7962C65.6154 4.10972 65.0769 3.62719 64.693 2.81367C64.5649 2.53395 64.3856 2.07648 64.5649 1.77112C64.6413 1.56774 64.7189 1.4914 64.9229 1.41506C65.2562 1.16098 66.2056 1.51704 66.5636 1.64351C67.4872 2.05027 68.282 2.40633 69.0767 2.94014C69.4618 3.19422 69.8468 3.67675 70.3083 3.80436H70.8215C71.6421 3.98211 72.5645 3.85507 73.3334 4.08409C74.6926 4.49028 75.923 5.12606 77.0264 5.83818C80.4107 7.94776 83.1548 10.9472 85.0519 14.5312C85.3593 15.1157 85.4875 15.6495 85.7444 16.2596C86.2834 17.5055 86.9748 18.776 87.5133 19.9706C88.0264 21.1909 88.5649 22.4112 89.308 23.4019C89.7189 23.9357 91.2568 24.2154 91.9493 24.4946C92.4366 24.6979 93.2308 24.9264 93.6934 25.2067C94.5905 25.7148 95.4365 26.3506 96.283 26.9351C96.6922 27.2177 97.9737 27.8529 98.0254 28.3867Z" fill="white"/>
<path fill-rule="evenodd" clip-rule="evenodd" d="M45 48.6855H54.5669C55.6894 48.6855 56.7861 48.4511 57.6535 48.0343C59.0819 47.3592 59.7967 46.448 59.7967 45.2517V42.7547C59.7967 41.7927 58.9801 40.8565 57.4248 40.2577C56.5825 39.9196 55.5619 39.7633 54.5669 39.7633H50.5362C49.1839 39.7633 48.5464 39.3465 48.3931 38.437C48.3674 38.3332 48.3674 38.2289 48.3674 38.1251V36.5901C48.3674 36.4863 48.3674 36.4082 48.3931 36.3044C48.5464 35.6019 48.9032 35.3938 50.0771 35.29C50.1789 35.29 50.3064 35.2638 50.4087 35.2638H59.9248V33.0012H50.562C49.2096 33.0012 48.5206 33.1049 47.8831 33.2868C45.8932 33.9369 45.0257 34.9256 45.0257 36.6688V38.6457C45.0257 40.1808 46.7349 41.4808 49.567 41.7927C49.8987 41.7927 50.2046 41.819 50.5362 41.819H53.9808C54.1083 41.819 54.2353 41.819 54.3371 41.8452C55.4092 41.949 55.8426 42.1309 56.1743 42.5203C56.3527 42.7285 56.4299 42.9109 56.4299 43.1453V45.1222C56.4299 45.3566 56.2766 45.6691 55.945 45.9285C55.6636 46.1891 55.1788 46.3454 54.5412 46.3967C54.4137 46.3967 54.3125 46.4229 54.1838 46.4229H45V48.6855ZM80.5642 44.7305C80.5642 47.0718 82.2481 48.3719 85.6927 48.6325C85.9986 48.6587 86.3303 48.6849 86.6362 48.6849H95.3105V46.4211H86.5847C84.62 46.4211 83.8806 45.9268 83.8806 44.7305V33H80.5636V44.7305H80.5642ZM61.9146 44.8605V36.7976C61.9146 34.7426 63.3173 33.4944 66.1237 33.1038C66.4051 33.0513 66.7367 33.0513 67.0169 33.0513H73.3434C73.6493 33.0513 73.9306 33.0513 74.2623 33.1038C77.043 33.4944 78.4713 34.7426 78.4713 36.7976V44.8605C78.4713 46.5261 77.8595 47.4099 76.4815 47.9824L79.7728 51H75.8953L73.2416 48.5806L70.5621 48.7368H67.0163C66.4045 48.7368 65.7663 48.6593 65.0516 48.4511C62.9353 47.8781 61.9146 46.7336 61.9146 44.8605ZM65.5119 44.6535C65.5119 44.7835 65.5376 44.8867 65.5634 45.0179C65.7675 45.9536 66.6343 46.4742 67.9352 46.4742H70.9721L68.1914 43.9248H72.0688L74.4921 46.1361C74.9267 45.9017 75.2326 45.5373 75.3344 45.0692C75.3601 44.9392 75.3601 44.836 75.3601 44.731V36.9801C75.3601 36.9014 75.3601 36.7982 75.3344 36.6933C75.1303 35.8095 74.2634 35.3157 72.9871 35.3157H67.9358C66.4559 35.3157 65.5125 35.9657 65.5125 36.9801L65.5119 44.6535ZM96.8418 48.6855H97.3267V46.8123H97.99V46.4217H96.1785V46.8123H96.8418V48.6855ZM100.567 48.6855H101V46.4217H100.337L99.7506 47.983L99.1645 46.4217H98.4755V48.6855H98.9346V46.9686L99.5722 48.6855H99.9038L100.541 46.9686H100.567V48.6855H100.567Z" fill="white"/>
</svg>
