<svg width="24" height="28" viewBox="0 0 24 28" fill="none" xmlns="http://www.w3.org/2000/svg">
<path d="M8.61049 25.1875H14.36C14.3636 25.563 14.2903 25.9354 14.1445 26.2828C13.9597 26.7013 13.6755 27.0705 13.3154 27.3596C12.9554 27.6487 12.53 27.8495 12.0747 27.945C11.8859 27.9843 11.6932 28.0027 11.5002 27.9997C10.7373 27.9984 10.0056 27.7023 9.4645 27.1757C8.92336 26.649 8.61644 25.9345 8.61049 25.1875ZM1.01974 24.0014C0.818203 24.002 0.621021 23.944 0.453249 23.8346C0.285477 23.7253 0.154688 23.5696 0.0775013 23.3873C0.000314629 23.205 -0.0197855 23.0043 0.0197548 22.8108C0.0592952 22.6173 0.156691 22.4397 0.299567 22.3005L2.04768 20.5885C2.57787 20.0697 2.87602 19.366 2.8766 18.6321V12.7421C2.8766 8.40503 5.22013 4.027 9.34338 3.06709V2.11201C9.34303 1.8231 9.40328 1.5372 9.52042 1.27203C9.63755 1.00686 9.80907 0.768079 10.0243 0.570487C10.2396 0.372896 10.494 0.220708 10.7718 0.123359C11.0496 0.0260095 11.3449 -0.0144258 11.6393 0.0045599C12.1942 0.0511008 12.7105 0.301512 13.0846 0.705488C13.4586 1.10946 13.6627 1.63707 13.6558 2.18232V3.06629C17.7663 4.02659 20.1255 8.4203 20.1255 12.7413V18.6341C20.125 19.3677 20.4221 20.0714 20.9515 20.5905L22.7025 22.3005C22.8446 22.4398 22.9414 22.6172 22.9806 22.8103C23.0197 23.0035 22.9995 23.2036 22.9224 23.3855C22.8454 23.5673 22.715 23.7227 22.5477 23.832C22.3804 23.9413 22.1838 23.9995 21.9827 23.9994L1.01974 24.0014Z" fill="white"/>
<circle cx="18.5" cy="6.5" r="4.5" fill="#169DFF" stroke="#0A0B0B" stroke-width="2"/>
</svg>
