<svg width="93" height="12" viewBox="0 0 93 12" fill="none" xmlns="http://www.w3.org/2000/svg">
<path fill-rule="evenodd" clip-rule="evenodd" d="M65.0658 0.174334H66.9766V10.0674H75.2607L74.0442 12H65.0658V0.174334ZM50.0618 12L42.9943 0.730484C42.5598 -0.00106689 41.4015 -0.0010667 40.9088 0.759896L33.8995 12H36.2167L38.3313 8.60428H42.8498L44.0378 6.67219H39.5192L41.9814 2.77968L47.7457 12H50.0618ZM54.3624 0.178075C51.1334 0.178075 49.0077 2.82353 49.0077 6.08717C49.0077 9.35027 51.1339 11.9968 54.3624 11.9968L62.2141 11.9872L63.4429 10.0717H54.42C52.2436 10.0717 50.9699 8.2877 50.9699 6.08717C50.9699 3.88663 52.243 2.10267 54.42 2.10267H62.4576L63.6439 0.172196L54.3624 0.178075ZM5.35517 2.10267H13.6387C15.8163 2.10267 17.0894 3.88663 17.0894 6.08717C17.0894 8.2877 15.8168 10.0717 13.6387 10.0717H5.35517C3.17765 10.0717 1.905 8.2877 1.905 6.08717C1.905 3.88663 3.17765 2.10267 5.35517 2.10267ZM5.35517 0.178075C2.12566 0.178075 0 2.82353 0 6.08717C0 9.35027 2.12566 11.9968 5.35517 11.9968H13.6387C16.8682 11.9968 18.9939 9.35027 18.9939 6.08717C18.9939 2.82353 16.8682 0.178075 13.6387 0.178075H5.35517ZM77.3028 7.02406C77.6139 8.77273 78.8046 10.0717 80.663 10.0717H89.6858L88.456 11.9872L80.6053 11.9968C77.3753 11.9968 75.2507 9.35027 75.2507 6.08717C75.2507 2.82353 77.3758 0.178075 80.6053 0.178075L89.8864 0.17273L88.701 2.10321H80.6635C78.831 2.10321 77.6351 3.38021 77.3033 5.09251H88.6434L87.4268 7.0246L77.3028 7.02406ZM29.8011 7.19519C30.7114 7.17913 31.579 6.80241 32.2172 6.14618C32.8553 5.48994 33.2129 4.60669 33.2129 3.68663C33.2129 2.76657 32.8553 1.88332 32.2172 1.22708C31.579 0.57085 30.7114 0.194137 29.8011 0.178075L20.0544 0.173799V11.9995H22.198V2.10321H29.8011C30.2166 2.10321 30.6152 2.27004 30.909 2.56698C31.2029 2.86393 31.3679 3.26668 31.3679 3.68663C31.3679 4.10658 31.2029 4.50933 30.909 4.80628C30.6152 5.10323 30.2166 5.27005 29.8011 5.27005H23.704L30.5821 11.9861H33.3491L28.4253 7.19947L29.8011 7.19519ZM91.8887 0.185027C92.3856 0.185027 92.7788 0.581821 92.7788 1.10802C92.7788 1.64278 92.3862 2.03637 91.8887 2.03637C91.3855 2.03637 90.9939 1.64278 90.9939 1.10802C90.9939 0.581821 91.3855 0.185027 91.8887 0.185027V0C91.2839 0 90.7727 0.470053 90.7727 1.10749C90.7727 1.75134 91.2844 2.22139 91.8887 2.22139C92.4883 2.22139 93 1.75134 93 1.10749C93 0.470053 92.4883 0 91.8887 0V0.185027Z" fill="white"/>
</svg>
