<svg width="47" height="48" viewBox="0 0 47 48" fill="none" xmlns="http://www.w3.org/2000/svg">
<g clip-path="url(#clip0_164_1414)">
<path d="M29.4131 10.1769V19.566L32.6614 21.632C32.747 21.6572 32.9326 21.659 33.0183 21.632L46.9984 12.1113C46.9984 10.9845 45.9579 10.1769 45.3707 10.1769H29.4131Z" fill="white"/>
<path d="M29.4129 23.0688L32.3774 25.1259C32.795 25.4359 33.2984 25.1259 33.2984 25.1259C32.7968 25.4359 47 15.9062 47 15.9062V33.1628C47 35.0413 45.8096 35.8292 44.471 35.8292H29.4111V23.0688H29.4129Z" fill="white"/>
<path d="M14.064 18.7403C13.0538 18.7403 12.2489 19.2198 11.6546 20.1771C11.0603 21.1344 10.7622 22.4018 10.7622 23.9793C10.7622 25.5802 11.0603 26.8458 11.6546 27.776C12.2489 28.7081 13.0289 29.1714 13.9926 29.1714C14.9867 29.1714 15.7756 28.7189 16.3574 27.8139C16.9393 26.9089 17.232 25.6523 17.232 24.046C17.232 22.3712 16.95 21.0677 16.3842 20.1357C15.8184 19.2054 15.0456 18.7403 14.064 18.7403Z" fill="white"/>
<path d="M0 5.40845V42.1408L27.6639 48V0L0 5.40845ZM18.5116 29.9845C17.3426 31.5385 15.8184 32.3173 13.9372 32.3173C12.1043 32.3173 10.6122 31.5637 9.45747 30.0584C8.30451 28.5512 7.72625 26.5897 7.72625 24.1704C7.72625 21.6158 8.31165 19.5497 9.48424 17.9723C10.6568 16.3948 12.2096 15.6052 14.1425 15.6052C15.9683 15.6052 17.4461 16.3588 18.5723 17.8695C19.7002 19.3803 20.2642 21.3706 20.2642 23.8423C20.266 26.3824 19.6806 28.4304 18.5116 29.9845Z" fill="white"/>
</g>
<defs>
<clipPath id="clip0_164_1414">
<rect width="47" height="48" fill="white"/>
</clipPath>
</defs>
</svg>
