<svg width="20" height="20" viewBox="0 0 20 20" fill="none" xmlns="http://www.w3.org/2000/svg">
<path fill-rule="evenodd" clip-rule="evenodd" d="M1.4416 15.2177L0.0503597 18.9276C-0.00306335 19.0704 -0.0142616 19.2255 0.0181027 19.3745C0.0504669 19.5235 0.125026 19.66 0.232874 19.7677C0.340723 19.8754 0.477303 19.9499 0.626304 19.9821C0.775304 20.0143 0.930427 20.0029 1.07315 19.9494L4.78207 18.5581C5.20658 18.3991 5.59215 18.1511 5.91285 17.8308L16.6564 7.08741C16.6564 7.08741 16.2815 5.96406 15.1592 4.8407C14.0369 3.71841 12.9125 3.3436 12.9125 3.3436L2.16899 14.0869C1.84862 14.4076 1.6006 14.7932 1.4416 15.2177ZM14.4107 1.84544L15.875 0.381163C16.1375 0.118588 16.488 -0.0486982 16.8543 0.0127105C17.37 0.0974121 18.1588 0.353634 18.902 1.09795C19.6464 1.84227 19.9026 2.62999 19.9873 3.14561C20.0487 3.51195 19.8814 3.8624 19.6188 4.12497L18.1535 5.58925C18.1535 5.58925 17.7797 4.46696 16.6564 3.34466C15.534 2.22025 14.4107 1.84544 14.4107 1.84544Z" fill="white"/>
</svg>
