<svg width="18" height="18" viewBox="0 0 18 18" fill="none" xmlns="http://www.w3.org/2000/svg">
<path fill-rule="evenodd" clip-rule="evenodd" d="M1.2961 13.1753L0.0452769 16.3873C-0.00275417 16.5109 -0.0128222 16.6452 0.0162756 16.7741C0.0453733 16.9031 0.112407 17.0213 0.209371 17.1146C0.306334 17.2078 0.42913 17.2723 0.563092 17.3002C0.697053 17.3281 0.83652 17.3182 0.964835 17.2718L4.29942 16.0673C4.68109 15.9297 5.02774 15.715 5.31608 15.4376L14.9752 6.13617C14.9752 6.13617 14.6383 5.16359 13.6292 4.191C12.6202 3.21934 11.6092 2.89484 11.6092 2.89484L1.95007 12.1963C1.66204 12.4739 1.43905 12.8077 1.2961 13.1753ZM12.9562 1.59775L14.2727 0.330005C14.5088 0.102671 14.8239 -0.0421621 15.1532 0.0110045C15.6168 0.0843379 16.326 0.306171 16.9943 0.950588C17.6635 1.595 17.8938 2.277 17.97 2.72342C18.0252 3.04059 17.8748 3.344 17.6387 3.57134L16.3213 4.83909C16.3213 4.83909 15.9852 3.86742 14.9752 2.89575C13.9662 1.92225 12.9562 1.59775 12.9562 1.59775Z" fill="white"/>
</svg>
