<svg width="18" height="19" viewBox="0 0 18 19" fill="none" xmlns="http://www.w3.org/2000/svg">
<path d="M4.9579 7.89796C5.56298 8.99483 6.26036 10.0475 7.16577 11.0075C8.07412 11.9733 9.20369 12.8523 10.6658 13.6032C10.7743 13.6562 10.8768 13.6562 10.9691 13.6194C11.1083 13.5664 11.2504 13.4501 11.3896 13.3102C11.498 13.2012 11.6328 13.0275 11.7734 12.8376C12.336 12.0941 13.0319 11.1709 14.015 11.6332C14.037 11.6435 14.0531 11.6553 14.0751 11.6641L17.3539 13.559C17.3642 13.5649 17.3759 13.5752 17.3847 13.5811C17.8169 13.88 17.9956 14.3408 18 14.8635C18 15.395 17.8051 15.9927 17.5195 16.4977C17.1415 17.1647 16.5847 17.6064 15.943 17.8979C15.3321 18.1806 14.6523 18.3322 13.9989 18.4294C12.9733 18.5811 12.0122 18.4839 11.0292 18.1806C10.0681 17.8817 9.09967 17.3885 8.04189 16.7318L7.96424 16.6818C7.4793 16.377 6.9548 16.0516 6.44056 15.6674C4.5594 14.2392 2.64162 12.1765 1.39191 9.9062C0.344384 8.00102 -0.226995 5.9442 0.0850661 3.98455C0.257945 2.90976 0.716513 1.93214 1.51644 1.28727C2.21382 0.721899 3.15293 0.412713 4.36894 0.521664C4.50813 0.53197 4.63266 0.612947 4.69859 0.733677L6.80097 4.30551C7.10863 4.70598 7.14673 5.10351 6.97824 5.50103C6.83906 5.82641 6.55777 6.12676 6.17392 6.4065C6.06111 6.50368 5.92632 6.60232 5.78421 6.70538C5.31392 7.04843 4.77917 7.44449 4.9623 7.90974L4.9579 7.89796Z" fill="white"/>
</svg>
