<svg width="72" height="40" viewBox="0 0 72 40" fill="none" xmlns="http://www.w3.org/2000/svg">
<path d="M36 40C55.8823 40 72 31.0457 72 20C72 8.9543 55.8823 0 36 0C16.1177 0 0 8.9543 0 20C0 31.0457 16.1177 40 36 40Z" fill="white"/>
<path fill-rule="evenodd" clip-rule="evenodd" d="M10.109 31.8424L14.0544 10.5265H23.1773C27.1224 10.7897 29.0951 12.8948 29.0951 16.5793C29.0951 22.8951 24.4103 26.5793 20.2183 26.3161H15.7804L14.7941 31.8424H10.109ZM16.7665 22.3689L17.9995 14.474H21.2049C22.9309 14.474 24.1636 15.2634 24.1636 16.8423C23.9173 21.3162 21.9446 22.1057 19.7255 22.3689H16.7665ZM28.1785 26.3161L32.1236 5.00046H36.8086L35.8223 10.5265H40.2604C44.2058 10.7897 45.6852 12.8948 45.1921 15.5266L43.4661 26.3161H38.5347L40.2607 16.5793C40.5071 15.2634 40.5071 14.474 38.7813 14.474H35.0826L32.8635 26.3161H28.1785ZM43.1503 31.8424L47.0954 10.5265H56.2185C60.1639 10.7897 62.1366 12.8948 62.1366 16.5793C62.1366 22.8951 57.4515 26.5793 53.2598 26.3161H48.8214L47.835 31.8424H43.1503ZM49.8074 22.3689L51.0405 14.474H54.2461C55.9722 14.474 57.2049 15.2634 57.2049 16.8423C56.9585 21.3162 54.9858 22.1057 52.7668 22.3689H49.8074Z" fill="#020204"/>
</svg>
