<svg width="54" height="56" viewBox="0 0 54 56" fill="none" xmlns="http://www.w3.org/2000/svg">
<g clip-path="url(#clip0_489_829)">
<path d="M53.7906 33.53C53.4668 32.544 52.6186 31.8572 51.5217 31.6924C51.0045 31.6148 50.4122 31.6479 49.7112 31.7932C48.4895 32.0466 47.5831 32.1431 46.9216 32.1618C49.4184 27.923 51.4487 23.0892 52.6175 18.539C54.5075 11.1815 53.4976 7.82967 52.3174 6.31358C49.194 2.30065 44.6371 0.144861 39.1397 0.0788981C36.207 0.0428411 33.6325 0.625056 32.2895 1.04374C31.039 0.821884 29.6945 0.698018 28.2838 0.675111C25.6393 0.632691 23.3027 1.21236 21.3062 2.40373C20.2009 2.02789 18.4269 1.49806 16.3783 1.15997C11.56 0.364597 7.67666 0.984353 4.83617 3.00206C1.39663 5.44503 -0.19785 9.68958 0.0970408 15.6178C0.190697 17.4999 1.23779 23.2266 2.88648 28.6577C3.83401 31.7794 4.8444 34.3717 5.8896 36.3633C7.37185 39.1874 8.95789 40.8505 10.7384 41.4477C11.7364 41.782 13.5496 42.0162 15.4567 40.419C15.6984 40.7134 16.0209 41.0059 16.4489 41.2776C16.9925 41.6223 17.6572 41.904 18.321 42.0709C20.7132 42.6722 22.954 42.5218 24.8657 41.6789C24.8776 42.0208 24.8866 42.3475 24.8942 42.6296C24.9069 43.0871 24.9195 43.5357 24.9362 43.9552C25.0495 46.7918 25.2414 48.9974 25.8101 50.5407C25.8413 50.6255 25.8833 50.7549 25.9276 50.8921C26.2113 51.7656 26.6857 53.2278 27.8927 54.3729C29.1425 55.5592 30.6543 55.9229 32.0389 55.9229C32.7333 55.9229 33.3958 55.8313 33.977 55.7062C36.0484 55.2597 38.401 54.5797 40.1028 52.1431C41.7118 49.8397 42.494 46.3704 42.6355 40.9039C42.6539 40.7493 42.6708 40.6017 42.687 40.461L42.7208 40.1722L43.0998 40.2057L43.1975 40.2123C45.3073 40.309 47.887 39.8591 49.4714 39.1191C50.7233 38.535 54.7351 36.4053 53.7906 33.53Z" fill="white"/>
<path d="M22.7973 17.2914C22.232 17.2123 21.7201 17.2855 21.461 17.4828C21.3155 17.5937 21.2703 17.7222 21.2581 17.8107C21.2256 18.045 21.3889 18.3042 21.4893 18.4378C21.7732 18.8162 22.1879 19.0763 22.5984 19.1335C22.6579 19.142 22.7172 19.1458 22.776 19.1458C23.4605 19.1458 24.083 18.6099 24.1378 18.2143C24.2064 17.7188 23.4911 17.3884 22.7973 17.2914ZM41.5252 17.3071C41.4712 16.9188 40.784 16.8081 40.1317 16.8993C39.4804 16.9905 38.8488 17.2861 38.9016 17.6753C38.9437 17.978 39.4873 18.4947 40.1307 18.4947C40.1851 18.4947 40.24 18.4911 40.2952 18.4832C40.7247 18.4234 41.0398 18.1492 41.1896 17.9912C41.4174 17.7502 41.5495 17.4817 41.5252 17.3071Z" fill="#020204"/>
<path d="M52.2708 33.9413C52.0316 33.214 51.2617 32.9801 49.9826 33.2456C46.1847 34.0338 44.8245 33.4878 44.378 33.1572C47.3301 28.6352 49.7586 23.1689 51.0687 18.069C51.6893 15.6532 52.0321 13.4096 52.0601 11.5809C52.0911 9.57376 51.7511 8.09882 51.0499 7.19782C48.223 3.56561 44.0738 1.61726 39.0514 1.56381C35.5986 1.52478 32.6813 2.41327 32.1158 2.66312C30.9248 2.36533 29.6265 2.1825 28.213 2.15917C25.621 2.11696 23.3804 2.74096 21.5254 4.01293C20.7197 3.71132 18.6373 2.99251 16.0906 2.57998C11.6879 1.86732 8.18934 2.40733 5.69268 4.18579C2.71361 6.30806 1.3383 10.1017 1.60471 15.461C1.69436 17.2641 2.71614 22.8109 4.32855 28.123C6.451 35.1146 8.75823 39.0726 11.1857 39.8869C11.4698 39.9821 11.7974 40.0487 12.1588 40.0487C13.0443 40.0487 14.13 39.6474 15.2595 38.2819C16.6373 36.62 18.0625 34.9985 19.5333 33.4193C20.4876 33.9343 21.536 34.2219 22.6082 34.2507C22.6103 34.279 22.613 34.3072 22.6156 34.3352C22.431 34.5565 22.2503 34.781 22.0735 35.0086C21.3305 35.9569 21.1759 36.1543 18.7845 36.6494C18.1042 36.7906 16.2976 37.165 16.271 38.4384C16.2423 39.8298 18.4067 40.4142 18.6533 40.4761C19.5127 40.6924 20.3406 40.7991 21.1301 40.7991C23.0503 40.7991 24.7401 40.1645 26.0905 38.9367C26.049 43.8968 26.2547 48.7845 26.847 50.2736C27.3321 51.4928 28.5172 54.4721 32.2605 54.4719C32.8098 54.4719 33.4143 54.4077 34.0794 54.2643C37.9862 53.4223 39.6827 51.686 40.339 47.8582C40.6902 45.8125 41.2928 40.9277 41.5763 38.3074C42.1745 38.4951 42.9447 38.581 43.7772 38.5808C45.5137 38.5808 47.5174 38.2098 48.7739 37.6233C50.1855 36.9641 52.7328 35.3467 52.2708 33.9413ZM42.9672 16.2352C42.9544 17.0087 42.8485 17.711 42.7363 18.444C42.6154 19.2324 42.4905 20.0475 42.4591 21.0369C42.4281 21.9999 42.5477 23.001 42.6633 23.9692C42.897 25.9248 43.1368 27.938 42.2085 29.9245C42.0543 29.6498 41.9169 29.3658 41.7972 29.0742C41.6818 28.793 41.4312 28.3412 41.0842 27.7159C39.7344 25.2819 36.5735 19.5819 38.1916 17.256C38.6736 16.5637 39.8968 15.8519 42.9672 16.2352ZM39.2455 3.13017C43.7456 3.23007 47.3054 4.92284 49.8257 8.16118C51.7587 10.6451 49.6301 21.9473 43.468 31.6977C43.406 31.6185 43.3437 31.5395 43.2811 31.4608L43.2031 31.3628C44.7954 28.7185 44.4841 26.1023 44.2069 23.7828C44.093 22.8309 43.9854 21.9318 44.0129 21.0872C44.0411 20.1921 44.1588 19.4243 44.2727 18.682C44.4126 17.7672 44.555 16.8206 44.5157 15.7047C44.545 15.5876 44.5569 15.4494 44.5415 15.2852C44.4413 14.2151 43.2263 11.0126 40.7499 8.11409C39.3952 6.52864 37.4198 4.75443 34.7225 3.55776C35.8827 3.31597 37.4692 3.0905 39.2455 3.13017ZM14.0642 37.2825C12.8196 38.7871 11.9603 38.4987 11.6776 38.4041C9.83613 37.7865 7.69933 33.8728 5.81544 27.6667C4.18532 22.2968 3.23273 16.8969 3.15721 15.3828C2.91927 10.594 4.07373 7.25657 6.58874 5.46305C10.6818 2.54456 17.4111 4.29141 20.1151 5.17736C20.0763 5.21596 20.0358 5.25201 19.9974 5.29125C15.5601 9.7971 15.6654 17.4955 15.6764 17.9661C15.6759 18.1477 15.6911 18.4048 15.7118 18.7583C15.7881 20.0532 15.9303 22.4631 15.5506 25.1922C15.1979 27.7282 15.9755 30.2105 17.6834 32.0025C17.8587 32.186 18.0429 32.3608 18.2354 32.526C17.4752 33.3447 15.823 35.1551 14.0642 37.2825ZM18.8058 30.921C17.4292 29.4766 16.804 27.4676 17.0903 25.4085C17.491 22.5256 17.3432 20.0148 17.2637 18.6659C17.2525 18.4771 17.2426 18.3116 17.2369 18.1812C17.8851 17.6032 20.889 15.9849 23.0313 16.4785C24.0088 16.7035 24.6045 17.3729 24.8521 18.5242C26.1338 24.4848 25.0217 26.9691 24.1282 28.9656C23.944 29.3769 23.77 29.7657 23.6215 30.1678L23.5064 30.4788C23.2148 31.2648 22.9436 31.9957 22.7755 32.6897C21.312 32.6854 19.8884 32.0568 18.8058 30.9208V30.921ZM19.0305 38.9596C18.6031 38.8523 18.2188 38.6658 17.9933 38.5112C18.1817 38.4221 18.5168 38.3008 19.0982 38.1803C21.9115 37.5981 22.346 37.1871 23.2948 35.9758C23.5123 35.6979 23.7588 35.3831 24.1004 34.9997L24.1008 34.9992C24.6093 34.4266 24.842 34.5237 25.2639 34.6998C25.6058 34.8419 25.9389 35.2729 26.0739 35.7471C26.1378 35.9711 26.2095 36.3961 25.9747 36.727C23.9928 39.5174 21.1046 39.4816 19.0305 38.9596ZM33.7537 52.7359C30.312 53.4774 29.0935 51.7117 28.2904 49.6931C27.7721 48.39 27.5173 42.5135 27.6981 36.0239C27.7004 35.9376 27.6882 35.8542 27.6646 35.7757C27.6434 35.6208 27.6113 35.4675 27.5684 35.3172C27.2996 34.3729 26.6447 33.5831 25.8589 33.2556C25.5467 33.1256 24.9738 32.8869 24.2853 33.064C24.4322 32.4557 24.6868 31.7688 24.9629 31.0249L25.0787 30.7121C25.209 30.3594 25.3727 29.9939 25.5457 29.607C26.4808 27.5183 27.7614 24.6573 26.3715 18.1939C25.8509 15.773 24.1124 14.5908 21.4769 14.8654C19.897 15.0298 18.4514 15.6708 17.7305 16.0384C17.5754 16.1173 17.4337 16.1936 17.3012 16.2678C17.5024 13.8287 18.2627 9.27025 21.1065 6.38611C22.8972 4.57054 25.2818 3.67378 28.1873 3.72214C33.9121 3.81631 37.5833 6.77044 39.6551 9.23228C41.4405 11.3535 42.4072 13.4904 42.793 14.643C39.8916 14.3462 37.9182 14.9221 36.918 16.3601C34.7417 19.4882 38.1085 25.5593 39.7266 28.4772C40.0234 29.0119 40.2795 29.474 40.36 29.6705C40.887 30.9545 41.5691 31.8118 42.0672 32.4375C42.2199 32.6292 42.368 32.8153 42.4806 32.9777C41.6018 33.2325 40.0234 33.821 40.1672 36.7631C40.0512 38.2393 39.2263 45.1508 38.8071 47.5927C38.2538 50.8187 37.0732 52.0203 33.7537 52.7361V52.7359ZM48.1194 36.2057C47.2208 36.625 45.717 36.9395 44.2885 37.0072C42.7107 37.0814 41.9075 36.8295 41.7185 36.6744C41.6299 34.841 42.3085 34.6495 43.0267 34.4467C43.1396 34.4149 43.2497 34.3837 43.356 34.3464C43.422 34.4005 43.4944 34.4542 43.5737 34.5068C44.8418 35.3484 47.1037 35.4391 50.2971 34.7763L50.3321 34.7693C49.9014 35.1742 49.1644 35.7176 48.1194 36.2057Z" fill="#020204"/>
</g>
<defs>
<clipPath id="clip0_489_829">
<rect width="54" height="56" fill="white"/>
</clipPath>
</defs>
</svg>
