<svg width="50" height="50" viewBox="0 0 50 50" fill="none" xmlns="http://www.w3.org/2000/svg">
<path d="M24.8855 0.000437564C22.8084 0.00984042 20.825 0.184913 19.08 0.490282C13.9387 1.38803 13.0052 3.26636 13.0052 6.73109V11.3067H25.1547V12.8318H8.44534C4.91452 12.8318 1.82233 14.929 0.855336 18.9185C-0.260282 23.4915 -0.309674 26.345 0.855336 31.1199C1.71901 34.6741 3.78168 37.2066 7.31251 37.2066H11.49V31.7216C11.49 27.759 14.9596 24.2638 19.08 24.2638H31.2154C34.5935 24.2638 37.2901 21.5155 37.2901 18.1632V6.73064C37.2901 3.47726 34.5124 1.03296 31.2154 0.489834C29.1278 0.146854 26.9627 -0.00941305 24.8855 0.000437564ZM18.3151 3.68009C19.5703 3.68009 20.5948 4.70948 20.5948 5.97483C20.5948 7.23571 19.5698 8.2557 18.3151 8.2557C17.0558 8.2557 16.0354 7.23616 16.0354 5.97483C16.0354 4.70948 17.0558 3.68009 18.3151 3.68009Z" fill="white"/>
<path d="M38.4221 12.5643V17.8873C38.4221 22.0144 34.872 25.4879 30.8239 25.4879H18.6755C15.3477 25.4879 12.5942 28.2947 12.5942 31.5795V42.9942C12.5942 46.2432 15.4602 48.154 18.6755 49.0858C22.5254 50.2017 26.2174 50.4033 30.8239 49.0858C33.8859 48.2121 36.9052 46.4533 36.9052 42.9942V38.4258H24.7567V36.903H42.9864C46.5215 36.903 47.8384 34.4726 49.0677 30.8252C50.3378 27.0706 50.2838 23.459 49.0677 18.642C48.194 15.174 46.5256 12.5643 42.9864 12.5643H38.4221ZM31.5892 41.4714C32.8498 41.4714 33.8714 42.4894 33.8714 43.7488C33.8714 45.0123 32.8498 46.0402 31.5892 46.0402C30.3327 46.0402 29.307 45.0123 29.307 43.7488C29.307 42.4898 30.3331 41.4714 31.5892 41.4714Z" fill="white"/>
</svg>
