<svg width="60" height="54" viewBox="0 0 60 54" fill="none" xmlns="http://www.w3.org/2000/svg">
<path d="M60 26.8718C60 22.8749 55.0224 19.087 47.391 16.738C49.1521 8.91628 48.3693 2.69333 44.9205 0.701004C44.1256 0.233668 43.1961 0.0122981 42.181 0.0122981V2.75482C42.7436 2.75482 43.1961 2.86551 43.5752 3.07458C45.2385 4.03385 45.9601 7.68645 45.3975 12.3844C45.2629 13.5404 45.0428 14.758 44.7737 16.0001C42.3767 15.4098 39.7595 14.9548 37.0077 14.6596C35.3567 12.3844 33.6445 10.3183 31.9201 8.51043C35.9071 4.78404 39.6494 2.74252 42.1932 2.74252V0C38.83 0 34.4272 2.41047 29.9755 6.5919C25.5238 2.43507 21.1211 0.0491934 17.7578 0.0491934V2.79172C20.2894 2.79172 24.044 4.82094 28.031 8.52273C26.3188 10.3306 24.6066 12.3844 22.98 14.6596C20.2161 14.9548 17.5989 15.4098 15.2018 16.0124C14.9205 14.7826 14.7126 13.5896 14.5658 12.4459C13.991 7.74794 14.7004 4.09534 16.3514 3.12377C16.7183 2.9024 17.1953 2.80402 17.7578 2.80402V0.0614916C16.7305 0.0614916 15.8011 0.282861 14.9939 0.750197C11.5573 2.74252 10.7868 8.95317 12.5601 16.7503C4.95312 19.1116 0 22.8872 0 26.8718C0 30.8688 4.97758 34.6567 12.609 37.0056C10.8479 44.8274 11.6307 51.0503 15.0795 53.0426C15.8744 53.51 16.8039 53.7313 17.8312 53.7313C21.1945 53.7313 25.5972 51.3209 30.0489 47.1394C34.5006 51.2963 38.9034 53.6821 42.2666 53.6821C43.2939 53.6821 44.2234 53.4608 45.0306 52.9934C48.4672 51.0011 49.2377 44.7905 47.4643 36.9933C55.0469 34.6444 60 30.8565 60 26.8718ZM44.0766 18.6688C43.6241 20.2553 43.0616 21.891 42.4256 23.5267C41.9242 22.5428 41.3983 21.5589 40.8235 20.5751C40.2609 19.5912 39.6616 18.6319 39.0624 17.6973C40.799 17.9555 42.4745 18.2753 44.0766 18.6688ZM38.4753 31.7665C37.5214 33.4268 36.543 35.001 35.5279 36.4645C33.7057 36.6244 31.8589 36.7105 30 36.7105C28.1533 36.7105 26.3066 36.6244 24.4965 36.4768C23.4815 35.0133 22.4908 33.4514 21.5369 31.8034C20.6074 30.1924 19.7636 28.5567 18.9931 26.9087C19.7513 25.2607 20.6074 23.6128 21.5247 22.0017C22.4786 20.3414 23.457 18.7672 24.4721 17.3037C26.2943 17.1439 28.1411 17.0578 30 17.0578C31.8467 17.0578 33.6934 17.1439 35.5035 17.2914C36.5186 18.7549 37.5092 20.3168 38.4631 21.9648C39.3926 23.5759 40.2364 25.2115 41.0069 26.8595C40.2364 28.5075 39.3926 30.1555 38.4753 31.7665ZM42.4256 30.1678C43.086 31.8157 43.6486 33.4637 44.1133 35.0625C42.5112 35.456 40.8235 35.7881 39.0746 36.0464C39.6739 35.0994 40.2731 34.1278 40.8357 33.1317C41.3983 32.1478 41.9242 31.1516 42.4256 30.1678ZM30.0245 43.2901C28.8871 42.1094 27.7497 40.7935 26.6245 39.3546C27.7252 39.4038 28.8504 39.4407 29.9878 39.4407C31.1374 39.4407 32.2748 39.4161 33.3877 39.3546C32.287 40.7935 31.1496 42.1094 30.0245 43.2901ZM20.9254 36.0464C19.1887 35.7881 17.5132 35.4683 15.9111 35.0748C16.3636 33.4883 16.9262 31.8526 17.5622 30.217C18.0636 31.2008 18.5895 32.1847 19.1643 33.1686C19.7391 34.1524 20.3261 35.1117 20.9254 36.0464ZM29.9633 10.4536C31.1007 11.6342 32.2381 12.9501 33.3632 14.389C32.2625 14.3398 31.1374 14.3029 30 14.3029C28.8504 14.3029 27.713 14.3275 26.6001 14.389C27.7008 12.9501 28.8382 11.6342 29.9633 10.4536ZM20.9132 17.6973C20.3139 18.6442 19.7146 19.6158 19.1521 20.612C18.5895 21.5958 18.0636 22.5797 17.5622 23.5636C16.9018 21.9156 16.3392 20.2676 15.8744 18.6688C17.4766 18.2876 19.1643 17.9555 20.9132 17.6973ZM9.84509 33.0948C5.5157 31.2377 2.71504 28.8027 2.71504 26.8718C2.71504 24.941 5.5157 22.4936 9.84509 20.6489C10.8969 20.1938 12.0465 19.788 13.2328 19.4067C13.9299 21.8172 14.8471 24.3261 15.9845 26.8964C14.8594 29.4545 13.9543 31.951 13.2695 34.3492C12.0587 33.9679 10.9091 33.5498 9.84509 33.0948ZM16.4248 50.6691C14.7615 49.7098 14.04 46.0572 14.6025 41.3592C14.7371 40.2032 14.9572 38.9857 15.2263 37.7435C17.6233 38.3338 20.2405 38.7889 22.9923 39.084C24.6433 41.3592 26.3555 43.4254 28.0799 45.2332C24.0929 48.9596 20.3506 51.0011 17.8068 51.0011C17.2564 50.9888 16.7917 50.8781 16.4248 50.6691ZM45.4342 41.2977C46.009 45.9957 45.2996 49.6483 43.6486 50.6199C43.2817 50.8412 42.8047 50.9396 42.2421 50.9396C39.7106 50.9396 35.956 48.9104 31.969 45.2086C33.6812 43.4008 35.3934 41.3469 37.02 39.0717C39.7839 38.7766 42.4011 38.3216 44.7982 37.7189C45.0795 38.9611 45.2996 40.154 45.4342 41.2977ZM50.1427 33.0948C49.0909 33.5498 47.9413 33.9557 46.755 34.3369C46.0579 31.9264 45.1406 29.4176 44.0033 26.8472C45.1284 24.2892 46.0334 21.7926 46.7183 19.3944C47.9291 19.7757 49.0787 20.1938 50.1549 20.6489C54.4843 22.5059 57.285 24.941 57.285 26.8718C57.2727 28.8027 54.4721 31.25 50.1427 33.0948Z" fill="white"/>
<path d="M29.9875 32.492C33.0743 32.492 35.5766 29.9757 35.5766 26.8716C35.5766 23.7676 33.0743 21.2513 29.9875 21.2513C26.9007 21.2513 24.3984 23.7676 24.3984 26.8716C24.3984 29.9757 26.9007 32.492 29.9875 32.492Z" fill="white"/>
</svg>
