<svg width="41" height="45" viewBox="0 0 41 45" fill="none" xmlns="http://www.w3.org/2000/svg">
<path d="M40.9264 19.8424C40.8527 19.0868 40.73 18.2198 40.4846 17.2537C40.2391 16.3 39.871 15.2472 39.331 14.1572C38.7911 13.0672 38.0916 11.9401 37.1835 10.8377C36.8276 10.4042 36.4349 9.98311 36.0177 9.57437C36.6435 7.06002 35.2568 4.88008 35.2568 4.88008C32.8638 4.73145 31.3421 5.63563 30.7776 6.04436C30.6794 6.00721 30.5935 5.95766 30.4954 5.9205C30.0904 5.75949 29.6731 5.59847 29.2314 5.46222C28.8019 5.32598 28.3601 5.20212 27.906 5.09064C27.452 4.97917 26.9979 4.89247 26.5316 4.81815C26.4457 4.80577 26.372 4.79338 26.2861 4.78099C25.243 1.412 22.2487 0 22.2487 0C18.8985 2.14278 18.2727 5.14019 18.2727 5.14019C18.2727 5.14019 18.2604 5.20212 18.2359 5.31359C18.0518 5.36313 17.8677 5.42506 17.6836 5.47461C17.4259 5.54892 17.1682 5.64801 16.9228 5.7471C16.6651 5.84619 16.4196 5.94528 16.1619 6.05675C15.6588 6.2797 15.1556 6.52742 14.6648 6.79991C14.1862 7.0724 13.7198 7.36967 13.2658 7.67932L13.1431 7.62977C8.50434 5.84619 4.39329 7.98897 4.39329 7.98897C4.01287 12.9681 6.24633 16.1018 6.68812 16.6715C6.57767 16.9812 6.4795 17.2908 6.38132 17.6005C6.03771 18.7276 5.78001 19.8795 5.62047 21.081C5.59593 21.2544 5.57139 21.4278 5.55911 21.6012C1.26399 23.7439 0 28.1162 0 28.1162C3.57109 32.2655 7.74349 32.5256 7.74349 32.5256L7.75576 32.5132C8.28345 33.4669 8.89704 34.3711 9.58426 35.2258C9.87878 35.585 10.1733 35.9194 10.4924 36.2538C9.19156 40.0191 10.6764 43.1404 10.6764 43.1404C14.6525 43.289 17.2664 41.3816 17.8186 40.9481C18.2113 41.0843 18.6163 41.2082 19.0212 41.3073C20.2484 41.6293 21.5001 41.8151 22.7519 41.8647C23.0587 41.877 23.3777 41.8894 23.6845 41.877H24.1263L24.3227 41.8647V41.877C26.2002 44.5772 29.4891 44.9612 29.4891 44.9612C31.833 42.4716 31.968 39.9944 31.968 39.4618V39.4246V39.3503V39.2388C32.4588 38.892 32.9252 38.5204 33.367 38.1117C34.2996 37.2571 35.1218 36.2786 35.809 35.2258L35.9931 34.9285C38.6438 35.0771 40.5214 33.2688 40.5214 33.2688C40.0796 30.4819 38.5088 29.1195 38.1775 28.8594C37.8462 28.5993 38.1652 28.847 38.1407 28.8346C38.1161 28.8222 38.1161 28.8098 38.1161 28.8098C38.1039 28.7974 38.0793 28.785 38.0548 28.7727C38.067 28.5993 38.0793 28.4382 38.0916 28.2648C38.1161 27.9676 38.1161 27.6579 38.1161 27.3607V26.9643V26.89L38.1039 26.7042L38.0916 26.4565C38.0916 26.3698 38.0793 26.2955 38.067 26.2211C38.0548 26.1468 38.0548 26.0601 38.0425 25.9858L38.018 25.7505L37.9811 25.5151C37.9321 25.2055 37.883 24.9082 37.8093 24.5986C37.5271 23.3971 37.0608 22.2576 36.4594 21.2296C35.8459 20.2016 35.085 19.2974 34.2137 18.5294C33.3547 17.7615 32.3852 17.1422 31.3789 16.6839C30.3604 16.2256 29.305 15.9284 28.2496 15.7921C27.7219 15.7178 27.1943 15.6931 26.6666 15.7054H26.2739L26.0775 15.7178C26.0039 15.7178 25.9303 15.7302 25.8689 15.7302C25.5989 15.755 25.3289 15.7921 25.0712 15.8417C24.0159 16.0399 23.0218 16.4238 22.1506 16.9564C21.2793 17.489 20.5184 18.1455 19.9048 18.8886C19.2912 19.6318 18.8126 20.4617 18.4813 21.3163C18.15 22.1709 17.9659 23.0627 17.9168 23.9174C17.9045 24.1279 17.9045 24.3509 17.9045 24.5614V24.7224L17.9168 24.8958C17.9291 24.9949 17.9291 25.1064 17.9413 25.2055C17.9781 25.639 18.0641 26.0601 18.1745 26.4565C18.4077 27.2616 18.7758 27.9923 19.2299 28.6116C19.6839 29.2309 20.2362 29.7388 20.8129 30.1475C21.3897 30.5439 22.0156 30.8287 22.6292 31.0145C23.2427 31.2003 23.8563 31.2746 24.4331 31.2746H24.7522C24.789 31.2746 24.8258 31.2746 24.8626 31.2622C24.924 31.2622 24.9853 31.2499 25.0467 31.2499C25.059 31.2499 25.0835 31.2499 25.0958 31.2375L25.1571 31.2251C25.194 31.2251 25.2308 31.2127 25.2676 31.2127C25.3412 31.2003 25.4026 31.1879 25.4762 31.1755C25.5498 31.1632 25.6112 31.1508 25.6726 31.126C25.8075 31.1012 25.9303 31.0517 26.053 31.0145C26.2984 30.9278 26.5438 30.8287 26.7525 30.7173C26.9734 30.6058 27.1697 30.4695 27.3661 30.3457C27.4151 30.3085 27.4765 30.2714 27.5256 30.2218C27.7219 30.0608 27.7588 29.7635 27.5992 29.5654C27.4642 29.392 27.2188 29.3424 27.0224 29.4539L26.8752 29.5282C26.7034 29.6149 26.5316 29.6892 26.3475 29.7512C26.1634 29.8131 25.9671 29.8626 25.7707 29.8998C25.6726 29.9122 25.5744 29.9246 25.4639 29.9369C25.4148 29.9369 25.3658 29.9493 25.3044 29.9493H25.0099C24.9485 29.9493 24.8872 29.9493 24.8258 29.9369H24.7522C24.7276 29.9369 24.6908 29.9369 24.6663 29.9246C24.6049 29.9122 24.5558 29.9122 24.4945 29.8998C24.0404 29.8379 23.5863 29.7016 23.1568 29.5034C22.7151 29.3053 22.2978 29.0328 21.9174 28.686C21.537 28.3392 21.2056 27.9304 20.9479 27.4597C20.6902 26.9891 20.5061 26.4689 20.4202 25.9239C20.3834 25.6514 20.3589 25.3665 20.3711 25.094C20.3711 25.0197 20.3834 24.9454 20.3834 24.8711V24.772C20.3834 24.7348 20.3957 24.6977 20.3957 24.6605C20.408 24.5119 20.4325 24.3632 20.457 24.2146C20.6657 23.0256 21.2547 21.8613 22.1628 20.9819C22.396 20.7589 22.6414 20.5607 22.8991 20.375C23.1568 20.1892 23.4391 20.0281 23.7336 19.8919C24.0281 19.7557 24.3227 19.6442 24.6417 19.5575C24.9485 19.4708 25.2676 19.4212 25.5989 19.3841C25.7585 19.3717 25.918 19.3593 26.0898 19.3593H26.4702L26.6052 19.3717C26.9611 19.3965 27.3047 19.446 27.6483 19.5327C28.3355 19.6813 29.0105 19.9414 29.6363 20.2883C30.8881 20.9943 31.9557 22.0842 32.6061 23.3971C32.9374 24.0536 33.1706 24.7596 33.2811 25.4904C33.3056 25.6762 33.3301 25.862 33.3424 26.0477L33.3547 26.184L33.367 26.3202V26.8528C33.367 26.9395 33.3547 27.0882 33.3547 27.1749C33.3424 27.373 33.3179 27.5836 33.2933 27.7818C33.2688 27.98 33.232 28.1781 33.1951 28.3763C33.1583 28.5745 33.1092 28.7727 33.0602 28.9585C32.962 29.3424 32.8393 29.7264 32.692 30.1103C32.3975 30.8535 32.0048 31.5719 31.5385 32.2284C30.5935 33.5413 29.305 34.6065 27.8324 35.2877C27.0961 35.6221 26.323 35.8698 25.5253 35.9937C25.1326 36.068 24.7276 36.1052 24.3227 36.1176H23.7091C23.4882 36.1176 23.2796 36.1052 23.0587 36.0804C22.1996 36.0185 21.3529 35.8574 20.5184 35.6221C19.6962 35.3868 18.8985 35.0524 18.1377 34.656C16.6283 33.8385 15.2661 32.7238 14.2107 31.3737C13.683 30.7049 13.2167 29.9741 12.8363 29.2186C12.4559 28.463 12.1491 27.6579 11.9282 26.8528C11.7073 26.0354 11.5723 25.2055 11.5109 24.3632L11.4987 24.2022V23.4962V23.4095V23.0999C11.5109 22.6911 11.5477 22.2576 11.5968 21.8365C11.6459 21.4154 11.7195 20.9819 11.8054 20.5607C11.8913 20.1396 11.9895 19.7185 12.1122 19.2974C12.3454 18.4675 12.6399 17.6624 12.9835 16.9069C13.683 15.3958 14.5911 14.0457 15.6833 12.9681C15.9533 12.6956 16.2356 12.4479 16.5301 12.2002C16.8246 11.9649 17.1314 11.7419 17.4505 11.5314C17.7573 11.3208 18.0886 11.135 18.4199 10.9616C18.5795 10.8749 18.7513 10.7882 18.9231 10.7139L19.1808 10.6024L19.4385 10.4909C19.7821 10.3423 20.138 10.2184 20.5061 10.107C20.592 10.0822 20.6902 10.0574 20.7761 10.0203C20.862 9.9955 20.9602 9.97072 21.0461 9.94595C21.2302 9.89641 21.4142 9.84686 21.5983 9.8097C21.6842 9.78493 21.7824 9.77255 21.8806 9.74778C21.9787 9.723 22.0646 9.71062 22.1628 9.68585C22.261 9.67346 22.3469 9.64869 22.4451 9.6363L22.5801 9.61153L22.7273 9.58676C22.8255 9.57437 22.9114 9.56199 23.0096 9.5496C23.12 9.53721 23.2182 9.52483 23.3286 9.51244C23.4145 9.50006 23.5618 9.48767 23.6477 9.47528C23.7091 9.4629 23.7827 9.4629 23.8441 9.45051L23.979 9.43813L24.0404 9.42574H24.114C24.2245 9.41335 24.3227 9.41335 24.4331 9.40097L24.5926 9.38858H24.7154C24.8013 9.38858 24.8994 9.3762 24.9853 9.3762C25.3412 9.36381 25.7094 9.36381 26.0652 9.3762C26.777 9.40097 27.4765 9.48767 28.1514 9.61153C29.5136 9.87164 30.7899 10.3051 31.9557 10.8873C33.1215 11.457 34.1523 12.163 35.0605 12.931C35.1218 12.9805 35.1709 13.0301 35.2323 13.0796C35.2813 13.1292 35.3427 13.1787 35.3918 13.2282C35.5022 13.3273 35.6004 13.4264 35.7109 13.5255C35.8213 13.6246 35.9195 13.7237 36.0177 13.8228C36.1158 13.9219 36.214 14.0209 36.3122 14.1324C36.6926 14.5412 37.0485 14.9499 37.3675 15.371C38.0057 16.2009 38.5211 17.0431 38.9261 17.8358L38.9997 17.9845L39.0733 18.1331C39.1224 18.2322 39.1715 18.3313 39.2083 18.4304C39.2574 18.5294 39.2942 18.6161 39.3433 18.7152C39.3801 18.8143 39.4292 18.901 39.466 19.0001C39.6133 19.3717 39.7605 19.7309 39.871 20.0653C40.0551 20.6103 40.1901 21.0933 40.3005 21.5145C40.3373 21.6879 40.4969 21.7993 40.6687 21.7746C40.8527 21.7622 40.9877 21.6136 40.9877 21.4278C41 20.9819 40.9877 20.4493 40.9264 19.8424Z" fill="white"/>
</svg>
