<svg width="50" height="50" viewBox="0 0 50 50" fill="none" xmlns="http://www.w3.org/2000/svg">
<g clip-path="url(#clip0_489_803)">
<path d="M45.4741 2.60738C44.7708 4.28683 43.8786 5.88166 42.8041 7.3463C38.1024 2.64644 31.7205 0.00357819 25.0716 0.00357819C11.3181 0.00357819 0 11.3301 0 25.0977C0 31.9653 2.81323 38.5399 7.78849 43.2788L8.71321 44.099C13.2326 47.9071 18.9568 50.0031 24.8632 50.0031C37.9396 50.0031 48.932 39.7571 49.8633 26.6991C50.547 20.3067 48.6715 12.2219 45.4741 2.60738ZM11.3506 43.422C10.9469 43.9232 10.3282 44.2162 9.68351 44.2162C8.50482 44.2162 7.54103 43.2462 7.54103 42.068C7.54103 40.8898 8.51133 39.9199 9.68351 39.9199C10.1719 39.9199 10.6538 40.0891 11.0315 40.4016C11.9497 41.1437 12.093 42.5042 11.3506 43.422ZM45.3699 35.91C39.1834 44.1576 25.9703 41.378 17.498 41.7751C17.498 41.7751 15.9937 41.8662 14.4829 42.1136C14.4829 42.1136 15.0495 41.8727 15.7854 41.5928C21.7309 39.5228 24.5442 39.1192 28.1584 37.264C34.9635 33.8009 41.6905 26.2239 43.0907 18.3409C40.4988 25.9244 32.6452 32.4405 25.4884 35.0898C20.5848 36.8995 11.7283 38.657 11.7283 38.657L11.3701 38.4683C5.33993 35.5325 5.15759 22.4679 16.1175 18.2497C20.9169 16.401 25.5079 17.4165 30.6916 16.1797C36.2269 14.8648 42.6283 10.7117 45.2331 5.29581C48.1506 13.96 51.6606 27.5258 45.3699 35.91Z" fill="white"/>
</g>
<defs>
<clipPath id="clip0_489_803">
<rect width="50" height="50" fill="white"/>
</clipPath>
</defs>
</svg>
