<svg width="47" height="38" viewBox="0 0 47 38" fill="none" xmlns="http://www.w3.org/2000/svg">
<path fill-rule="evenodd" clip-rule="evenodd" d="M3.21803 16.3891C15.8319 11.0433 24.2291 7.49115 28.4458 5.76783C40.447 0.879243 42.9698 0.0351697 44.5915 0C44.9519 0 45.7448 0.07034 46.2854 0.492377C46.7179 0.844074 46.826 1.30128 46.8981 1.65298C46.9701 2.00468 47.0422 2.74324 46.9701 3.30595C46.3214 9.9882 43.5103 26.2014 42.0688 33.6574C41.4561 36.8227 40.2668 37.8778 39.1135 37.9833C36.5907 38.1943 34.6806 36.3655 32.266 34.818C28.4458 32.3913 26.3194 30.879 22.6074 28.4875C18.3186 25.7442 21.0937 24.2319 23.5444 21.7701C24.1931 21.137 35.2573 11.2895 35.4735 10.4102C35.5095 10.3047 35.5095 9.88269 35.2573 9.67167C35.005 9.46065 34.6446 9.53099 34.3563 9.60133C33.9598 9.67167 27.9052 13.6107 16.1202 21.3832C14.3903 22.5438 12.8406 23.1065 11.4351 23.0713C9.88536 23.0362 6.93011 22.2273 4.69565 21.5239C1.99268 20.6798 -0.169697 20.2226 0.0105009 18.7455C0.11862 17.9717 1.19981 17.198 3.21803 16.3891Z" fill="white"/>
</svg>
