<svg width="18" height="16" viewBox="0 0 18 16" fill="none" xmlns="http://www.w3.org/2000/svg">
<path fill-rule="evenodd" clip-rule="evenodd" d="M1.23244 6.96938C6.06328 4.85919 9.27924 3.45703 10.8941 2.77678C15.4903 0.84707 16.4565 0.513883 17.0776 0.5C17.2156 0.5 17.5193 0.527766 17.7263 0.694359C17.892 0.833187 17.9334 1.01366 17.961 1.15249C17.9886 1.29132 18.0162 1.58286 17.9886 1.80498C17.7401 4.44271 16.6635 10.8427 16.1114 13.7858C15.8768 15.0353 15.4213 15.4518 14.9796 15.4934C14.0135 15.5767 13.2819 14.8548 12.3572 14.244C10.8941 13.286 10.0798 12.6891 8.65814 11.7451C7.01565 10.6622 8.07843 10.0652 9.017 9.09344C9.26544 8.84355 13.5028 4.95637 13.5856 4.6093C13.5994 4.56766 13.5994 4.40106 13.5028 4.31776C13.4062 4.23447 13.2681 4.26223 13.1577 4.29C13.0059 4.31777 10.6871 5.87264 6.1737 8.94073C5.51118 9.39886 4.91768 9.62099 4.37939 9.60711C3.78588 9.59322 2.65409 9.27392 1.79834 8.99626C0.763155 8.66308 -0.0649904 8.4826 0.00402163 7.89952C0.0454289 7.5941 0.459501 7.28868 1.23244 6.96938Z" fill="white"/>
</svg>
