<svg width="46" height="46" viewBox="0 0 46 46" fill="none" xmlns="http://www.w3.org/2000/svg">
<g clip-path="url(#clip0_489_900)">
<path d="M0 23V0H46V46H0" fill="white"/>
<path d="M10.0854 23.0805V24.955H16.0654V41.975H20.309V24.955H26.289V23.115C26.289 22.08 26.2889 21.2405 26.243 21.2175C26.243 21.183 22.5975 21.1715 18.17 21.1715L10.1199 21.206V23.092L10.0854 23.0805ZM36.961 21.16C38.134 21.436 39.031 21.965 39.836 22.8045C40.2615 23.2645 40.8939 24.0695 40.94 24.2765C40.94 24.3455 38.9505 25.691 37.743 26.4385C37.697 26.473 37.513 26.2775 37.329 25.9785C36.731 25.1275 36.1215 24.7595 35.167 24.6905C33.787 24.5985 32.867 25.323 32.867 26.5305C32.867 26.8985 32.936 27.1055 33.074 27.4045C33.3845 28.037 33.9594 28.4165 35.742 29.1985C39.031 30.613 40.4569 31.5445 41.3194 32.8785C42.2969 34.3735 42.5154 36.7195 41.86 38.479C41.124 40.3995 39.33 41.699 36.7655 42.1245C35.9605 42.2625 34.1205 42.2395 33.258 42.09C31.418 41.745 29.6585 40.825 28.5775 39.6405C28.152 39.1805 27.3355 37.95 27.3815 37.8695L27.8185 37.5935L29.5435 36.593L30.843 35.834L31.142 36.2365C31.5215 36.8345 32.3724 37.6395 32.867 37.9155C34.3619 38.686 36.3629 38.5825 37.3519 37.6855C37.7775 37.2945 37.9615 36.8805 37.9615 36.3055C37.9615 35.7765 37.881 35.535 37.6165 35.1325C37.2485 34.6265 36.5125 34.2125 34.4425 33.2925C32.062 32.2805 31.0499 31.6365 30.107 30.6475C29.5665 30.0495 29.072 29.118 28.842 28.3475C28.6695 27.6805 28.6119 26.0475 28.773 25.392C29.2675 23.092 31.004 21.482 33.488 21.022C34.293 20.861 36.1905 20.93 36.984 21.137L36.961 21.16Z" fill="#020204"/>
</g>
<defs>
<clipPath id="clip0_489_900">
<rect width="46" height="46" fill="white"/>
</clipPath>
</defs>
</svg>
