<svg width="53" height="52" viewBox="0 0 53 52" fill="none" xmlns="http://www.w3.org/2000/svg">
<g clip-path="url(#clip0_164_1428)">
<path fill-rule="evenodd" clip-rule="evenodd" d="M47.0877 42.3041C50.3897 39.91 52.5 36.3718 52.5 32.4371C52.5 25.2308 45.4865 19.3873 36.8372 19.3873C28.1878 19.3873 21.1743 25.2308 21.1743 32.4371C21.1743 39.6456 28.1878 45.4891 36.8372 45.4891C38.6247 45.4891 40.3493 45.2356 41.9505 44.7741L42.4098 44.7048C42.711 44.7048 42.984 44.798 43.2418 44.9453L46.6717 46.9256L46.9728 47.0231C47.261 47.0231 47.495 46.7891 47.495 46.501L47.4105 46.1196L46.7042 43.4871L46.65 43.1535C46.65 42.8025 46.8233 42.4926 47.0877 42.3041ZM19.2958 4.97681C8.91533 4.97681 0.5 11.9881 0.5 20.6396C0.5 25.3586 3.03067 29.6075 6.9935 32.4783C7.312 32.7036 7.52 33.0763 7.52 33.4988L7.455 33.8975L6.60783 37.0565L6.506 37.5136C6.506 37.8603 6.78767 38.142 7.13217 38.142L7.49617 38.025L11.6107 35.6481C11.9183 35.4705 12.2455 35.36 12.6073 35.36L13.1598 35.4423C15.0795 35.9948 17.1508 36.3025 19.2958 36.3025L20.3272 36.2765C19.9198 35.0545 19.6967 33.7675 19.6967 32.4393C19.6967 24.5505 27.371 18.1545 36.8372 18.1545L37.8577 18.1805C36.4428 10.699 28.671 4.97681 19.2958 4.97681ZM31.6155 30.3506C30.4628 30.3506 29.529 29.4146 29.529 28.262C29.529 27.1071 30.4628 26.1733 31.6155 26.1733C32.7703 26.1733 33.7042 27.1071 33.7042 28.262C33.7042 29.4146 32.7703 30.3506 31.6155 30.3506ZM42.0588 30.3506C40.904 30.3506 39.9702 29.4146 39.9702 28.262C39.9702 27.1071 40.904 26.1733 42.0588 26.1733C43.2115 26.1733 44.1453 27.1071 44.1453 28.262C44.1453 29.4146 43.2115 30.3506 42.0588 30.3506ZM13.0298 18.1328C11.6453 18.1328 10.5252 17.0105 10.5252 15.6281C10.5252 14.2436 11.6453 13.1213 13.0298 13.1213C14.4143 13.1213 15.5367 14.2436 15.5367 15.6281C15.5367 17.0105 14.4143 18.1328 13.0298 18.1328ZM25.5597 18.1328C24.1752 18.1328 23.055 17.0105 23.055 15.6281C23.055 14.2436 24.1752 13.1213 25.5597 13.1213C26.9442 13.1213 28.0665 14.2436 28.0665 15.6281C28.0665 17.0105 26.9442 18.1328 25.5597 18.1328Z" fill="white"/>
</g>
<defs>
<clipPath id="clip0_164_1428">
<rect width="52" height="52" fill="white" transform="translate(0.5)"/>
</clipPath>
</defs>
</svg>
