<svg width="629" height="939" viewBox="0 0 629 939" fill="none" xmlns="http://www.w3.org/2000/svg">
<path d="M426.822 20.6546C333.721 50.1973 252.273 109.916 194.504 190.994C136.735 272.072 105.707 370.211 106.002 470.92C106.297 571.63 137.898 669.573 196.14 750.288C254.383 831.003 336.179 890.211 429.451 919.171L432.856 907.441C342.017 879.237 262.355 821.573 205.632 742.964C148.909 664.355 118.132 568.966 117.845 470.883C117.558 372.8 147.776 277.222 204.038 198.259C260.3 119.296 339.623 61.1348 430.296 32.3627L426.822 20.6546Z" fill="white"/>
<circle cx="276" cy="138" r="125" fill="#C701FC"/>
<circle cx="125" cy="475" r="125" fill="#C701FC"/>
<circle cx="276" cy="812" r="125" fill="#C701FC"/>
<path d="M239.952 138.896C239.952 140.112 240.101 141.221 240.4 142.224C240.699 143.205 241.125 144.048 241.68 144.752C242.256 145.435 242.949 145.968 243.76 146.352C244.571 146.736 245.488 146.928 246.512 146.928C247.515 146.928 248.421 146.736 249.232 146.352C250.043 145.968 250.725 145.435 251.28 144.752C251.856 144.048 252.293 143.205 252.592 142.224C252.891 141.221 253.04 140.112 253.04 138.896C253.04 137.68 252.891 136.581 252.592 135.6C252.293 134.597 251.856 133.755 251.28 133.072C250.725 132.368 250.043 131.824 249.232 131.44C248.421 131.056 247.515 130.864 246.512 130.864C245.488 130.864 244.571 131.056 243.76 131.44C242.949 131.824 242.256 132.368 241.68 133.072C241.125 133.776 240.699 134.619 240.4 135.6C240.101 136.581 239.952 137.68 239.952 138.896ZM257.264 138.896C257.264 140.795 256.976 142.469 256.4 143.92C255.845 145.371 255.077 146.587 254.096 147.568C253.136 148.528 252.005 149.253 250.704 149.744C249.403 150.235 248.016 150.48 246.544 150.48C245.072 150.48 243.675 150.235 242.352 149.744C241.051 149.253 239.909 148.528 238.928 147.568C237.968 146.587 237.2 145.371 236.624 143.92C236.048 142.469 235.76 140.795 235.76 138.896C235.76 136.997 236.048 135.333 236.624 133.904C237.2 132.453 237.979 131.237 238.96 130.256C239.963 129.275 241.115 128.539 242.416 128.048C243.717 127.557 245.093 127.312 246.544 127.312C247.995 127.312 249.371 127.557 250.672 128.048C251.973 128.539 253.104 129.275 254.064 130.256C255.045 131.237 255.824 132.453 256.4 133.904C256.976 135.333 257.264 136.997 257.264 138.896ZM283.012 150H279.14V142.992H272.836V150H268.964V133.264H272.836V139.792H279.14V133.264H283.012V150ZM293.821 147.28C295.015 147.28 295.922 147.216 296.541 147.088V142.8C296.327 142.736 296.018 142.672 295.613 142.608C295.207 142.544 294.759 142.512 294.269 142.512C293.842 142.512 293.405 142.544 292.957 142.608C292.53 142.672 292.135 142.789 291.773 142.96C291.431 143.131 291.154 143.376 290.941 143.696C290.727 143.995 290.621 144.379 290.621 144.848C290.621 145.765 290.909 146.405 291.485 146.768C292.061 147.109 292.839 147.28 293.821 147.28ZM293.501 132.848C294.781 132.848 295.858 133.008 296.733 133.328C297.607 133.648 298.301 134.096 298.813 134.672C299.346 135.248 299.719 135.952 299.933 136.784C300.167 137.595 300.285 138.491 300.285 139.472V149.616C299.687 149.744 298.781 149.893 297.565 150.064C296.37 150.256 295.015 150.352 293.501 150.352C292.498 150.352 291.581 150.256 290.749 150.064C289.917 149.872 289.202 149.563 288.605 149.136C288.029 148.709 287.57 148.155 287.229 147.472C286.909 146.789 286.749 145.947 286.749 144.944C286.749 143.984 286.93 143.173 287.293 142.512C287.677 141.851 288.189 141.317 288.829 140.912C289.469 140.485 290.205 140.187 291.037 140.016C291.89 139.824 292.775 139.728 293.693 139.728C294.119 139.728 294.567 139.76 295.037 139.824C295.506 139.867 296.007 139.952 296.541 140.08V139.44C296.541 138.992 296.487 138.565 296.381 138.16C296.274 137.755 296.082 137.403 295.805 137.104C295.549 136.784 295.197 136.539 294.749 136.368C294.322 136.197 293.778 136.112 293.117 136.112C292.221 136.112 291.399 136.176 290.653 136.304C289.906 136.432 289.298 136.581 288.829 136.752L288.349 133.616C288.839 133.445 289.554 133.275 290.493 133.104C291.431 132.933 292.434 132.848 293.501 132.848ZM304.099 141.648C304.099 140.411 304.291 139.259 304.674 138.192C305.059 137.104 305.603 136.165 306.307 135.376C307.032 134.587 307.907 133.968 308.931 133.52C309.955 133.072 311.107 132.848 312.387 132.848C313.965 132.848 315.459 133.136 316.867 133.712L316.035 136.88C315.587 136.688 315.075 136.528 314.499 136.4C313.944 136.272 313.347 136.208 312.707 136.208C311.192 136.208 310.04 136.688 309.251 137.648C308.461 138.587 308.067 139.92 308.067 141.648C308.067 143.312 308.44 144.635 309.187 145.616C309.933 146.576 311.192 147.056 312.963 147.056C313.624 147.056 314.275 146.992 314.915 146.864C315.555 146.736 316.109 146.576 316.579 146.384L317.123 149.584C316.696 149.797 316.045 149.989 315.171 150.16C314.317 150.331 313.432 150.416 312.515 150.416C311.085 150.416 309.837 150.203 308.771 149.776C307.725 149.328 306.851 148.72 306.147 147.952C305.464 147.163 304.952 146.235 304.611 145.168C304.269 144.08 304.099 142.907 304.099 141.648Z" fill="white"/>
<path d="M98.6169 445.824H102.649V468H98.6169V458.176H88.9849V468H84.9529V445.824H88.9849V454.688H98.6169V445.824ZM113.649 465.28C114.844 465.28 115.75 465.216 116.369 465.088V460.8C116.156 460.736 115.846 460.672 115.441 460.608C115.036 460.544 114.588 460.512 114.097 460.512C113.67 460.512 113.233 460.544 112.785 460.608C112.358 460.672 111.964 460.789 111.601 460.96C111.26 461.131 110.982 461.376 110.769 461.696C110.556 461.995 110.449 462.379 110.449 462.848C110.449 463.765 110.737 464.405 111.313 464.768C111.889 465.109 112.668 465.28 113.649 465.28ZM113.329 450.848C114.609 450.848 115.686 451.008 116.561 451.328C117.436 451.648 118.129 452.096 118.641 452.672C119.174 453.248 119.548 453.952 119.761 454.784C119.996 455.595 120.113 456.491 120.113 457.472V467.616C119.516 467.744 118.609 467.893 117.393 468.064C116.198 468.256 114.844 468.352 113.329 468.352C112.326 468.352 111.409 468.256 110.577 468.064C109.745 467.872 109.03 467.563 108.433 467.136C107.857 466.709 107.398 466.155 107.057 465.472C106.737 464.789 106.577 463.947 106.577 462.944C106.577 461.984 106.758 461.173 107.121 460.512C107.505 459.851 108.017 459.317 108.657 458.912C109.297 458.485 110.033 458.187 110.865 458.016C111.718 457.824 112.604 457.728 113.521 457.728C113.948 457.728 114.396 457.76 114.865 457.824C115.334 457.867 115.836 457.952 116.369 458.08V457.44C116.369 456.992 116.316 456.565 116.209 456.16C116.102 455.755 115.91 455.403 115.633 455.104C115.377 454.784 115.025 454.539 114.577 454.368C114.15 454.197 113.606 454.112 112.945 454.112C112.049 454.112 111.228 454.176 110.481 454.304C109.734 454.432 109.126 454.581 108.657 454.752L108.177 451.616C108.668 451.445 109.382 451.275 110.321 451.104C111.26 450.933 112.262 450.848 113.329 450.848ZM124.855 451.264H128.727V464.832H133.975V451.264H137.847V464.832H143.095V451.264H146.967V468H124.855V451.264ZM150.958 459.712C150.958 458.24 151.171 456.949 151.598 455.84C152.046 454.731 152.633 453.813 153.358 453.088C154.083 452.341 154.915 451.787 155.854 451.424C156.793 451.04 157.753 450.848 158.734 450.848C161.038 450.848 162.83 451.563 164.11 452.992C165.411 454.421 166.062 456.555 166.062 459.392C166.062 459.605 166.051 459.851 166.03 460.128C166.03 460.384 166.019 460.619 165.998 460.832H154.958C155.065 462.176 155.534 463.221 156.366 463.968C157.219 464.693 158.446 465.056 160.046 465.056C160.985 465.056 161.838 464.971 162.606 464.8C163.395 464.629 164.014 464.448 164.462 464.256L164.974 467.424C164.761 467.531 164.462 467.648 164.078 467.776C163.715 467.883 163.289 467.979 162.798 468.064C162.329 468.171 161.817 468.256 161.262 468.32C160.707 468.384 160.142 468.416 159.566 468.416C158.094 468.416 156.814 468.203 155.726 467.776C154.638 467.328 153.742 466.72 153.038 465.952C152.334 465.163 151.811 464.245 151.47 463.2C151.129 462.133 150.958 460.971 150.958 459.712ZM162.19 457.984C162.19 457.451 162.115 456.949 161.966 456.48C161.817 455.989 161.593 455.573 161.294 455.232C161.017 454.869 160.665 454.592 160.238 454.4C159.833 454.187 159.342 454.08 158.766 454.08C158.169 454.08 157.646 454.197 157.198 454.432C156.75 454.645 156.366 454.933 156.046 455.296C155.747 455.659 155.513 456.075 155.342 456.544C155.171 457.013 155.054 457.493 154.99 457.984H162.19ZM66.8961 496.712C66.8961 494.984 66.5015 493.64 65.7121 492.68C64.9441 491.72 63.6961 491.24 61.9681 491.24C61.6055 491.24 61.2215 491.261 60.8161 491.304C60.4321 491.325 60.0481 491.389 59.6641 491.496V501.064C60.0055 501.299 60.4535 501.523 61.0081 501.736C61.5841 501.928 62.1921 502.024 62.8321 502.024C64.2401 502.024 65.2641 501.544 65.9041 500.584C66.5655 499.624 66.8961 498.333 66.8961 496.712ZM70.8641 496.648C70.8641 497.928 70.6935 499.101 70.3521 500.168C70.0321 501.235 69.5628 502.152 68.9441 502.92C68.3255 503.688 67.5468 504.285 66.6081 504.712C65.6908 505.139 64.6455 505.352 63.4721 505.352C62.6828 505.352 61.9575 505.256 61.2961 505.064C60.6348 504.872 60.0908 504.659 59.6641 504.424V510.92H55.7921V488.808C56.5815 488.595 57.5521 488.392 58.7041 488.2C59.8561 488.008 61.0721 487.912 62.3521 487.912C63.6748 487.912 64.8588 488.115 65.9041 488.52C66.9495 488.925 67.8348 489.512 68.5601 490.28C69.3068 491.027 69.8721 491.944 70.2561 493.032C70.6615 494.099 70.8641 495.304 70.8641 496.648ZM80.7426 502.28C81.9373 502.28 82.844 502.216 83.4626 502.088V497.8C83.2493 497.736 82.94 497.672 82.5346 497.608C82.1293 497.544 81.6813 497.512 81.1906 497.512C80.764 497.512 80.3266 497.544 79.8786 497.608C79.452 497.672 79.0573 497.789 78.6946 497.96C78.3533 498.131 78.076 498.376 77.8626 498.696C77.6493 498.995 77.5426 499.379 77.5426 499.848C77.5426 500.765 77.8306 501.405 78.4066 501.768C78.9826 502.109 79.7613 502.28 80.7426 502.28ZM80.4226 487.848C81.7026 487.848 82.78 488.008 83.6546 488.328C84.5293 488.648 85.2226 489.096 85.7346 489.672C86.268 490.248 86.6413 490.952 86.8546 491.784C87.0893 492.595 87.2066 493.491 87.2066 494.472V504.616C86.6093 504.744 85.7026 504.893 84.4866 505.064C83.292 505.256 81.9373 505.352 80.4226 505.352C79.42 505.352 78.5026 505.256 77.6706 505.064C76.8386 504.872 76.124 504.563 75.5266 504.136C74.9506 503.709 74.492 503.155 74.1506 502.472C73.8306 501.789 73.6706 500.947 73.6706 499.944C73.6706 498.984 73.852 498.173 74.2146 497.512C74.5986 496.851 75.1106 496.317 75.7506 495.912C76.3906 495.485 77.1266 495.187 77.9586 495.016C78.812 494.824 79.6973 494.728 80.6146 494.728C81.0413 494.728 81.4893 494.76 81.9586 494.824C82.428 494.867 82.9293 494.952 83.4626 495.08V494.44C83.4626 493.992 83.4093 493.565 83.3026 493.16C83.196 492.755 83.004 492.403 82.7266 492.104C82.4706 491.784 82.1186 491.539 81.6706 491.368C81.244 491.197 80.7 491.112 80.0386 491.112C79.1426 491.112 78.3213 491.176 77.5746 491.304C76.828 491.432 76.22 491.581 75.7506 491.752L75.2706 488.616C75.7613 488.445 76.476 488.275 77.4146 488.104C78.3533 487.933 79.356 487.848 80.4226 487.848ZM91.2124 488.776C91.4897 488.669 91.831 488.563 92.2364 488.456C92.6417 488.349 93.079 488.253 93.5484 488.168C94.0177 488.083 94.5084 488.019 95.0204 487.976C95.5537 487.912 96.087 487.88 96.6204 487.88C97.5377 487.88 98.4124 487.965 99.2444 488.136C100.076 488.307 100.802 488.584 101.42 488.968C102.039 489.352 102.53 489.843 102.892 490.44C103.276 491.037 103.468 491.752 103.468 492.584C103.468 493.48 103.223 494.237 102.732 494.856C102.242 495.475 101.676 495.933 101.036 496.232C101.996 496.595 102.732 497.128 103.244 497.832C103.756 498.536 104.012 499.432 104.012 500.52C104.012 501.395 103.82 502.141 103.436 502.76C103.074 503.379 102.562 503.891 101.9 504.296C101.26 504.68 100.503 504.957 99.6284 505.128C98.7537 505.32 97.8044 505.416 96.7804 505.416C95.543 505.416 94.391 505.309 93.3244 505.096C92.2577 504.904 91.415 504.669 90.7964 504.392L91.4684 501.256C91.8737 501.427 92.5244 501.629 93.4204 501.864C94.3164 502.077 95.3724 502.184 96.5884 502.184C98.935 502.184 100.108 501.501 100.108 500.136C100.108 499.645 100.002 499.251 99.7884 498.952C99.575 498.653 99.3084 498.429 98.9884 498.28C98.6684 498.109 98.3057 498.003 97.9004 497.96C97.495 497.896 97.1004 497.864 96.7164 497.864H93.5164V494.984H96.6844C97.4737 494.984 98.1457 494.845 98.7004 494.568C99.2764 494.269 99.5644 493.757 99.5644 493.032C99.5644 492.435 99.287 491.965 98.7324 491.624C98.199 491.261 97.4417 491.08 96.4604 491.08C96.0337 491.08 95.5964 491.112 95.1484 491.176C94.7004 491.219 94.263 491.283 93.8364 491.368C93.431 491.453 93.0577 491.549 92.7164 491.656C92.375 491.741 92.1084 491.827 91.9164 491.912L91.2124 488.776ZM114.604 505.32C113.986 505.32 113.356 505.299 112.716 505.256C112.076 505.213 111.458 505.16 110.86 505.096C110.284 505.032 109.74 504.968 109.228 504.904C108.716 504.819 108.29 504.733 107.948 504.648V488.488C108.29 488.403 108.716 488.328 109.228 488.264C109.74 488.179 110.284 488.115 110.86 488.072C111.458 488.008 112.076 487.965 112.716 487.944C113.356 487.901 113.986 487.88 114.604 487.88C116.866 487.88 118.626 488.296 119.884 489.128C121.143 489.939 121.772 491.08 121.772 492.552C121.772 493.32 121.58 494.003 121.196 494.6C120.812 495.197 120.311 495.645 119.692 495.944C120.46 496.243 121.122 496.712 121.676 497.352C122.231 497.992 122.508 498.899 122.508 500.072C122.508 501.757 121.847 503.059 120.524 503.976C119.202 504.872 117.228 505.32 114.604 505.32ZM114.7 494.984C115.66 494.984 116.45 494.845 117.068 494.568C117.708 494.291 118.028 493.736 118.028 492.904C118.028 492.499 117.922 492.168 117.708 491.912C117.516 491.656 117.25 491.453 116.908 491.304C116.567 491.155 116.172 491.059 115.724 491.016C115.276 490.952 114.807 490.92 114.316 490.92C113.932 490.92 113.484 490.931 112.972 490.952C112.482 490.973 112.087 491.005 111.788 491.048V494.984H114.7ZM111.788 502.12C112.044 502.163 112.46 502.205 113.036 502.248C113.634 502.269 114.188 502.28 114.7 502.28C115.852 502.28 116.802 502.12 117.548 501.8C118.316 501.48 118.7 500.872 118.7 499.976C118.7 499.101 118.348 498.504 117.644 498.184C116.962 497.843 116.066 497.672 114.956 497.672H111.788V502.12ZM140.823 488.264V505H136.983C136.983 503.784 136.983 502.579 136.983 501.384C137.004 500.189 137.015 499.08 137.015 498.056C137.036 497.032 137.047 496.147 137.047 495.4C137.068 494.632 137.079 494.067 137.079 493.704C136.439 494.536 135.778 495.453 135.095 496.456C134.412 497.459 133.73 498.461 133.047 499.464C132.386 500.467 131.756 501.448 131.159 502.408C130.562 503.368 130.039 504.232 129.591 505H126.167V488.264H129.975C129.975 489.501 129.964 490.685 129.943 491.816C129.943 492.925 129.943 493.939 129.943 494.856C129.943 495.773 129.932 496.573 129.911 497.256C129.911 497.939 129.911 498.461 129.911 498.824C130.508 497.907 131.127 496.968 131.767 496.008C132.407 495.027 133.047 494.077 133.687 493.16C134.348 492.221 134.999 491.336 135.639 490.504C136.279 489.672 136.898 488.925 137.495 488.264H140.823ZM158.369 491.496H152.961V505H149.089V491.496H143.713V488.264H158.369V491.496ZM175.917 488.264V505H172.077C172.077 503.784 172.077 502.579 172.077 501.384C172.098 500.189 172.109 499.08 172.109 498.056C172.13 497.032 172.141 496.147 172.141 495.4C172.162 494.632 172.173 494.067 172.173 493.704C171.533 494.536 170.872 495.453 170.189 496.456C169.506 497.459 168.824 498.461 168.141 499.464C167.48 500.467 166.85 501.448 166.253 502.408C165.656 503.368 165.133 504.232 164.685 505H161.261V488.264H165.069C165.069 489.501 165.058 490.685 165.037 491.816C165.037 492.925 165.037 493.939 165.037 494.856C165.037 495.773 165.026 496.573 165.005 497.256C165.005 497.939 165.005 498.461 165.005 498.824C165.602 497.907 166.221 496.968 166.861 496.008C167.501 495.027 168.141 494.077 168.781 493.16C169.442 492.221 170.093 491.336 170.733 490.504C171.373 489.672 171.992 488.925 172.589 488.264H175.917ZM179.927 496.712C179.927 495.24 180.14 493.949 180.567 492.84C181.015 491.731 181.601 490.813 182.327 490.088C183.052 489.341 183.884 488.787 184.823 488.424C185.761 488.04 186.721 487.848 187.703 487.848C190.007 487.848 191.799 488.563 193.079 489.992C194.38 491.421 195.031 493.555 195.031 496.392C195.031 496.605 195.02 496.851 194.999 497.128C194.999 497.384 194.988 497.619 194.967 497.832H183.927C184.033 499.176 184.503 500.221 185.335 500.968C186.188 501.693 187.415 502.056 189.015 502.056C189.953 502.056 190.807 501.971 191.575 501.8C192.364 501.629 192.983 501.448 193.431 501.256L193.943 504.424C193.729 504.531 193.431 504.648 193.047 504.776C192.684 504.883 192.257 504.979 191.767 505.064C191.297 505.171 190.785 505.256 190.231 505.32C189.676 505.384 189.111 505.416 188.535 505.416C187.063 505.416 185.783 505.203 184.695 504.776C183.607 504.328 182.711 503.72 182.007 502.952C181.303 502.163 180.78 501.245 180.439 500.2C180.097 499.133 179.927 497.971 179.927 496.712ZM191.159 494.984C191.159 494.451 191.084 493.949 190.935 493.48C190.785 492.989 190.561 492.573 190.263 492.232C189.985 491.869 189.633 491.592 189.207 491.4C188.801 491.187 188.311 491.08 187.735 491.08C187.137 491.08 186.615 491.197 186.167 491.432C185.719 491.645 185.335 491.933 185.015 492.296C184.716 492.659 184.481 493.075 184.311 493.544C184.14 494.013 184.023 494.493 183.959 494.984H191.159Z" fill="white"/>
<path d="M242.969 805.256C241.796 805.256 240.612 805.213 239.417 805.128C238.222 805.064 237.177 804.915 236.281 804.68V783.144C236.75 783.059 237.252 782.984 237.785 782.92C238.318 782.835 238.862 782.771 239.417 782.728C239.972 782.685 240.516 782.653 241.049 782.632C241.604 782.611 242.126 782.6 242.617 782.6C243.961 782.6 245.209 782.707 246.361 782.92C247.513 783.112 248.505 783.443 249.337 783.912C250.19 784.381 250.852 785 251.321 785.768C251.79 786.536 252.025 787.485 252.025 788.616C252.025 789.661 251.769 790.557 251.257 791.304C250.766 792.051 250.073 792.648 249.177 793.096C250.521 793.544 251.513 794.205 252.153 795.08C252.793 795.955 253.113 797.064 253.113 798.408C253.113 800.691 252.281 802.408 250.617 803.56C248.953 804.691 246.404 805.256 242.969 805.256ZM240.249 795.016V801.768C240.697 801.811 241.177 801.843 241.689 801.864C242.201 801.885 242.67 801.896 243.097 801.896C243.929 801.896 244.697 801.843 245.401 801.736C246.126 801.629 246.745 801.448 247.257 801.192C247.79 800.915 248.206 800.552 248.505 800.104C248.825 799.656 248.985 799.08 248.985 798.376C248.985 797.117 248.526 796.243 247.609 795.752C246.692 795.261 245.422 795.016 243.801 795.016H240.249ZM240.249 791.848H243.097C244.633 791.848 245.838 791.635 246.713 791.208C247.588 790.76 248.025 789.971 248.025 788.84C248.025 787.773 247.566 787.016 246.649 786.568C245.753 786.12 244.58 785.896 243.129 785.896C242.51 785.896 241.956 785.907 241.465 785.928C240.996 785.949 240.59 785.981 240.249 786.024V791.848ZM263.008 802.28C264.203 802.28 265.11 802.216 265.728 802.088V797.8C265.515 797.736 265.206 797.672 264.8 797.608C264.395 797.544 263.947 797.512 263.456 797.512C263.03 797.512 262.592 797.544 262.144 797.608C261.718 797.672 261.323 797.789 260.96 797.96C260.619 798.131 260.342 798.376 260.128 798.696C259.915 798.995 259.808 799.379 259.808 799.848C259.808 800.765 260.096 801.405 260.672 801.768C261.248 802.109 262.027 802.28 263.008 802.28ZM262.688 787.848C263.968 787.848 265.046 788.008 265.92 788.328C266.795 788.648 267.488 789.096 268 789.672C268.534 790.248 268.907 790.952 269.12 791.784C269.355 792.595 269.472 793.491 269.472 794.472V804.616C268.875 804.744 267.968 804.893 266.752 805.064C265.558 805.256 264.203 805.352 262.688 805.352C261.686 805.352 260.768 805.256 259.936 805.064C259.104 804.872 258.39 804.563 257.792 804.136C257.216 803.709 256.758 803.155 256.416 802.472C256.096 801.789 255.936 800.947 255.936 799.944C255.936 798.984 256.118 798.173 256.48 797.512C256.864 796.851 257.376 796.317 258.016 795.912C258.656 795.485 259.392 795.187 260.224 795.016C261.078 794.824 261.963 794.728 262.88 794.728C263.307 794.728 263.755 794.76 264.224 794.824C264.694 794.867 265.195 794.952 265.728 795.08V794.44C265.728 793.992 265.675 793.565 265.568 793.16C265.462 792.755 265.27 792.403 264.992 792.104C264.736 791.784 264.384 791.539 263.936 791.368C263.51 791.197 262.966 791.112 262.304 791.112C261.408 791.112 260.587 791.176 259.84 791.304C259.094 791.432 258.486 791.581 258.016 791.752L257.536 788.616C258.027 788.445 258.742 788.275 259.68 788.104C260.619 787.933 261.622 787.848 262.688 787.848ZM274.214 788.264H278.086V801.832H283.334V788.264H287.206V801.832H292.454V788.264H296.326V805H274.214V788.264ZM315.901 788.264V805H312.061C312.061 803.784 312.061 802.579 312.061 801.384C312.083 800.189 312.093 799.08 312.093 798.056C312.115 797.032 312.125 796.147 312.125 795.4C312.147 794.632 312.157 794.067 312.157 793.704C311.517 794.536 310.856 795.453 310.173 796.456C309.491 797.459 308.808 798.461 308.125 799.464C307.464 800.467 306.835 801.448 306.237 802.408C305.64 803.368 305.117 804.232 304.669 805H301.245V788.264H305.053C305.053 789.501 305.043 790.685 305.021 791.816C305.021 792.925 305.021 793.939 305.021 794.856C305.021 795.773 305.011 796.573 304.989 797.256C304.989 797.939 304.989 798.461 304.989 798.824C305.587 797.907 306.205 796.968 306.845 796.008C307.485 795.027 308.125 794.077 308.765 793.16C309.427 792.221 310.077 791.336 310.717 790.504C311.357 789.672 311.976 788.925 312.573 788.264H315.901ZM180.323 842.32C179.704 842.32 179.075 842.299 178.435 842.256C177.795 842.213 177.176 842.16 176.579 842.096C176.003 842.032 175.459 841.968 174.947 841.904C174.435 841.819 174.008 841.733 173.667 841.648V825.488C174.008 825.403 174.435 825.328 174.947 825.264C175.459 825.179 176.003 825.115 176.579 825.072C177.176 825.008 177.795 824.965 178.435 824.944C179.075 824.901 179.704 824.88 180.323 824.88C182.584 824.88 184.344 825.296 185.603 826.128C186.862 826.939 187.491 828.08 187.491 829.552C187.491 830.32 187.299 831.003 186.915 831.6C186.531 832.197 186.03 832.645 185.411 832.944C186.179 833.243 186.84 833.712 187.395 834.352C187.95 834.992 188.227 835.899 188.227 837.072C188.227 838.757 187.566 840.059 186.243 840.976C184.92 841.872 182.947 842.32 180.323 842.32ZM180.419 831.984C181.379 831.984 182.168 831.845 182.787 831.568C183.427 831.291 183.747 830.736 183.747 829.904C183.747 829.499 183.64 829.168 183.427 828.912C183.235 828.656 182.968 828.453 182.627 828.304C182.286 828.155 181.891 828.059 181.443 828.016C180.995 827.952 180.526 827.92 180.035 827.92C179.651 827.92 179.203 827.931 178.691 827.952C178.2 827.973 177.806 828.005 177.507 828.048V831.984H180.419ZM177.507 839.12C177.763 839.163 178.179 839.205 178.755 839.248C179.352 839.269 179.907 839.28 180.419 839.28C181.571 839.28 182.52 839.12 183.267 838.8C184.035 838.48 184.419 837.872 184.419 836.976C184.419 836.101 184.067 835.504 183.363 835.184C182.68 834.843 181.784 834.672 180.675 834.672H177.507V839.12ZM207.022 833.616C207.022 834.939 206.83 836.144 206.446 837.232C206.062 838.32 205.518 839.248 204.814 840.016C204.11 840.784 203.257 841.381 202.254 841.808C201.273 842.235 200.185 842.448 198.99 842.448C197.795 842.448 196.707 842.235 195.726 841.808C194.745 841.381 193.902 840.784 193.198 840.016C192.494 839.248 191.939 838.32 191.534 837.232C191.15 836.144 190.958 834.939 190.958 833.616C190.958 832.293 191.15 831.099 191.534 830.032C191.939 828.944 192.494 828.016 193.198 827.248C193.923 826.48 194.777 825.893 195.758 825.488C196.739 825.061 197.817 824.848 198.99 824.848C200.163 824.848 201.241 825.061 202.222 825.488C203.225 825.893 204.078 826.48 204.782 827.248C205.486 828.016 206.03 828.944 206.414 830.032C206.819 831.099 207.022 832.293 207.022 833.616ZM203.054 833.616C203.054 831.952 202.691 830.64 201.966 829.68C201.262 828.699 200.27 828.208 198.99 828.208C197.71 828.208 196.707 828.699 195.982 829.68C195.278 830.64 194.926 831.952 194.926 833.616C194.926 835.301 195.278 836.635 195.982 837.616C196.707 838.597 197.71 839.088 198.99 839.088C200.27 839.088 201.262 838.597 201.966 837.616C202.691 836.635 203.054 835.301 203.054 833.616ZM209.806 825.776C210.083 825.669 210.425 825.563 210.83 825.456C211.235 825.349 211.673 825.253 212.142 825.168C212.611 825.083 213.102 825.019 213.614 824.976C214.147 824.912 214.681 824.88 215.214 824.88C216.131 824.88 217.006 824.965 217.838 825.136C218.67 825.307 219.395 825.584 220.014 825.968C220.633 826.352 221.123 826.843 221.486 827.44C221.87 828.037 222.062 828.752 222.062 829.584C222.062 830.48 221.817 831.237 221.326 831.856C220.835 832.475 220.27 832.933 219.63 833.232C220.59 833.595 221.326 834.128 221.838 834.832C222.35 835.536 222.606 836.432 222.606 837.52C222.606 838.395 222.414 839.141 222.03 839.76C221.667 840.379 221.155 840.891 220.494 841.296C219.854 841.68 219.097 841.957 218.222 842.128C217.347 842.32 216.398 842.416 215.374 842.416C214.137 842.416 212.985 842.309 211.918 842.096C210.851 841.904 210.009 841.669 209.39 841.392L210.062 838.256C210.467 838.427 211.118 838.629 212.014 838.864C212.91 839.077 213.966 839.184 215.182 839.184C217.529 839.184 218.702 838.501 218.702 837.136C218.702 836.645 218.595 836.251 218.382 835.952C218.169 835.653 217.902 835.429 217.582 835.28C217.262 835.109 216.899 835.003 216.494 834.96C216.089 834.896 215.694 834.864 215.31 834.864H212.11V831.984H215.278C216.067 831.984 216.739 831.845 217.294 831.568C217.87 831.269 218.158 830.757 218.158 830.032C218.158 829.435 217.881 828.965 217.326 828.624C216.793 828.261 216.035 828.08 215.054 828.08C214.627 828.08 214.19 828.112 213.742 828.176C213.294 828.219 212.857 828.283 212.43 828.368C212.025 828.453 211.651 828.549 211.31 828.656C210.969 828.741 210.702 828.827 210.51 828.912L209.806 825.776ZM230.446 831.024C230.382 831.92 230.318 832.859 230.254 833.84C230.19 834.8 230.137 835.76 230.094 836.72C230.051 837.68 230.009 838.608 229.966 839.504C229.923 840.4 229.891 841.232 229.87 842H226.126C226.169 840.763 226.233 839.429 226.318 838C226.403 836.549 226.499 835.088 226.606 833.616C226.734 832.123 226.862 830.661 226.99 829.232C227.118 827.803 227.257 826.48 227.406 825.264H230.766C231.577 826.565 232.398 828.101 233.23 829.872C234.062 831.621 234.99 833.616 236.014 835.856C237.081 833.573 238.051 831.515 238.926 829.68C239.801 827.824 240.579 826.352 241.262 825.264H244.654C244.803 826.48 244.942 827.803 245.07 829.232C245.219 830.661 245.347 832.123 245.454 833.616C245.561 835.088 245.657 836.549 245.742 838C245.827 839.429 245.891 840.763 245.934 842H242.094C242.051 840.251 241.977 838.448 241.87 836.592C241.785 834.715 241.678 832.859 241.55 831.024C241.23 831.664 240.878 832.379 240.494 833.168C240.131 833.957 239.769 834.757 239.406 835.568C239.043 836.379 238.691 837.168 238.35 837.936C238.009 838.683 237.71 839.344 237.454 839.92H234.574C234.318 839.344 234.009 838.672 233.646 837.904C233.305 837.136 232.953 836.347 232.59 835.536C232.227 834.725 231.854 833.936 231.47 833.168C231.107 832.379 230.766 831.664 230.446 831.024ZM265.584 833.616C265.584 834.939 265.392 836.144 265.008 837.232C264.624 838.32 264.08 839.248 263.376 840.016C262.672 840.784 261.819 841.381 260.816 841.808C259.835 842.235 258.747 842.448 257.552 842.448C256.358 842.448 255.27 842.235 254.288 841.808C253.307 841.381 252.464 840.784 251.76 840.016C251.056 839.248 250.502 838.32 250.096 837.232C249.712 836.144 249.52 834.939 249.52 833.616C249.52 832.293 249.712 831.099 250.096 830.032C250.502 828.944 251.056 828.016 251.76 827.248C252.486 826.48 253.339 825.893 254.32 825.488C255.302 825.061 256.379 824.848 257.552 824.848C258.726 824.848 259.803 825.061 260.784 825.488C261.787 825.893 262.64 826.48 263.344 827.248C264.048 828.016 264.592 828.944 264.976 830.032C265.382 831.099 265.584 832.293 265.584 833.616ZM261.616 833.616C261.616 831.952 261.254 830.64 260.528 829.68C259.824 828.699 258.832 828.208 257.552 828.208C256.272 828.208 255.27 828.699 254.544 829.68C253.84 830.64 253.488 831.952 253.488 833.616C253.488 835.301 253.84 836.635 254.544 837.616C255.27 838.597 256.272 839.088 257.552 839.088C258.832 839.088 259.824 838.597 260.528 837.616C261.254 836.635 261.616 835.301 261.616 833.616ZM266.804 842C267.786 840.357 268.906 838.779 270.164 837.264C271.423 835.728 272.692 834.309 273.972 833.008C272.756 831.707 271.572 830.384 270.42 829.04C269.268 827.675 268.255 826.416 267.38 825.264H271.828C272.49 826.16 273.258 827.152 274.132 828.24C275.028 829.328 276.127 830.661 277.428 832.24V825.264H281.172V832.24C282.516 830.683 283.626 829.349 284.5 828.24C285.375 827.131 286.143 826.139 286.804 825.264H291.188C290.378 826.416 289.396 827.664 288.244 829.008C287.114 830.352 285.919 831.675 284.66 832.976C286.068 834.384 287.359 835.824 288.532 837.296C289.727 838.768 290.826 840.336 291.828 842H287.508C287.082 841.36 286.612 840.688 286.1 839.984C285.61 839.28 285.087 838.587 284.532 837.904C283.999 837.2 283.444 836.528 282.868 835.888C282.292 835.248 281.727 834.651 281.172 834.096V842H277.428V834.096C276.874 834.672 276.308 835.291 275.732 835.952C275.156 836.613 274.591 837.296 274.036 838C273.503 838.683 272.98 839.365 272.468 840.048C271.978 840.731 271.53 841.381 271.124 842H266.804ZM308.621 842H304.749V834.992H298.445V842H294.573V825.264H298.445V831.792H304.749V825.264H308.621V842ZM328.678 833.616C328.678 834.939 328.486 836.144 328.102 837.232C327.718 838.32 327.174 839.248 326.47 840.016C325.766 840.784 324.913 841.381 323.91 841.808C322.929 842.235 321.841 842.448 320.646 842.448C319.451 842.448 318.363 842.235 317.382 841.808C316.401 841.381 315.558 840.784 314.854 840.016C314.15 839.248 313.595 838.32 313.19 837.232C312.806 836.144 312.614 834.939 312.614 833.616C312.614 832.293 312.806 831.099 313.19 830.032C313.595 828.944 314.15 828.016 314.854 827.248C315.579 826.48 316.433 825.893 317.414 825.488C318.395 825.061 319.473 824.848 320.646 824.848C321.819 824.848 322.897 825.061 323.878 825.488C324.881 825.893 325.734 826.48 326.438 827.248C327.142 828.016 327.686 828.944 328.07 830.032C328.475 831.099 328.678 832.293 328.678 833.616ZM324.71 833.616C324.71 831.952 324.347 830.64 323.622 829.68C322.918 828.699 321.926 828.208 320.646 828.208C319.366 828.208 318.363 828.699 317.638 829.68C316.934 830.64 316.582 831.952 316.582 833.616C316.582 835.301 316.934 836.635 317.638 837.616C318.363 838.597 319.366 839.088 320.646 839.088C321.926 839.088 322.918 838.597 323.622 837.616C324.347 836.635 324.71 835.301 324.71 833.616ZM331.739 833.648C331.739 832.411 331.931 831.259 332.315 830.192C332.699 829.104 333.243 828.165 333.947 827.376C334.672 826.587 335.547 825.968 336.571 825.52C337.595 825.072 338.747 824.848 340.027 824.848C341.606 824.848 343.099 825.136 344.507 825.712L343.675 828.88C343.227 828.688 342.715 828.528 342.139 828.4C341.584 828.272 340.987 828.208 340.347 828.208C338.832 828.208 337.68 828.688 336.891 829.648C336.102 830.587 335.707 831.92 335.707 833.648C335.707 835.312 336.08 836.635 336.827 837.616C337.574 838.576 338.832 839.056 340.603 839.056C341.264 839.056 341.915 838.992 342.555 838.864C343.195 838.736 343.75 838.576 344.219 838.384L344.763 841.584C344.336 841.797 343.686 841.989 342.811 842.16C341.958 842.331 341.072 842.416 340.155 842.416C338.726 842.416 337.478 842.203 336.411 841.776C335.366 841.328 334.491 840.72 333.787 839.952C333.104 839.163 332.592 838.235 332.251 837.168C331.91 836.08 331.739 834.907 331.739 833.648ZM360.775 828.496H355.367V842H351.495V828.496H346.119V825.264H360.775V828.496ZM378.323 825.264V842H374.483C374.483 840.784 374.483 839.579 374.483 838.384C374.504 837.189 374.515 836.08 374.515 835.056C374.536 834.032 374.547 833.147 374.547 832.4C374.568 831.632 374.579 831.067 374.579 830.704C373.939 831.536 373.278 832.453 372.595 833.456C371.912 834.459 371.23 835.461 370.547 836.464C369.886 837.467 369.256 838.448 368.659 839.408C368.062 840.368 367.539 841.232 367.091 842H363.667V825.264H367.475C367.475 826.501 367.464 827.685 367.443 828.816C367.443 829.925 367.443 830.939 367.443 831.856C367.443 832.773 367.432 833.573 367.411 834.256C367.411 834.939 367.411 835.461 367.411 835.824C368.008 834.907 368.627 833.968 369.267 833.008C369.907 832.027 370.547 831.077 371.187 830.16C371.848 829.221 372.499 828.336 373.139 827.504C373.779 826.672 374.398 825.925 374.995 825.264H378.323Z" fill="white"/>
</svg>
