<svg width="44" height="44" viewBox="0 0 44 44" fill="none" xmlns="http://www.w3.org/2000/svg">
<g clip-path="url(#clip0_164_1444)">
<path d="M0.104492 44L3.19733 32.7012C1.28883 29.3938 0.285992 25.6447 0.287826 21.8002C0.293326 9.78083 10.0742 0 22.0917 0C27.9235 0.00183333 33.3978 2.27333 37.5155 6.39467C41.6313 10.516 43.8973 15.994 43.8955 21.8203C43.89 33.8415 34.1092 43.6223 22.0917 43.6223C18.4433 43.6205 14.8482 42.7057 11.6637 40.9677L0.104492 44ZM12.199 37.0205C15.2717 38.8447 18.205 39.9373 22.0843 39.9392C32.0723 39.9392 40.2087 31.8102 40.2142 21.8167C40.2178 11.803 32.12 3.685 22.099 3.68133C12.1037 3.68133 3.97283 11.8103 3.96916 21.802C3.96733 25.8812 5.16266 28.9355 7.17016 32.131L5.33866 38.819L12.199 37.0205ZM33.0752 27.0032C32.9395 26.7758 32.5765 26.6402 32.0302 26.367C31.4857 26.0938 28.8072 24.7757 28.3067 24.5942C27.808 24.4127 27.445 24.321 27.0802 24.8673C26.7172 25.4118 25.6722 26.6402 25.355 27.0032C25.0378 27.3662 24.7188 27.412 24.1743 27.1388C23.6298 26.8657 21.8735 26.2918 19.7927 24.4347C18.1738 22.99 17.0793 21.2062 16.7622 20.6598C16.445 20.1153 16.7292 19.8202 17.0005 19.5488C17.2462 19.305 17.545 18.9127 17.8182 18.5937C18.095 18.2783 18.1848 18.051 18.3682 17.6862C18.5497 17.3232 18.4598 17.0042 18.3223 16.731C18.1848 16.4597 17.0958 13.7775 16.643 12.6867C16.1993 11.6252 15.7502 11.7682 15.4165 11.7517L14.3715 11.7333C14.0085 11.7333 13.4182 11.869 12.9195 12.4153C12.4208 12.9617 11.0128 14.278 11.0128 16.9602C11.0128 19.6423 12.9653 22.2328 13.2367 22.5958C13.5098 22.9588 17.0775 28.4625 22.5427 30.822C23.8425 31.383 24.8582 31.7185 25.6483 31.9697C26.9537 32.384 28.1417 32.3253 29.0803 32.186C30.1272 32.0302 32.3033 30.8678 32.758 29.5955C33.2127 28.3213 33.2127 27.2305 33.0752 27.0032Z" fill="white"/>
</g>
<defs>
<clipPath id="clip0_164_1444">
<rect width="44" height="44" fill="white"/>
</clipPath>
</defs>
</svg>
